<?xml version="1.0" encoding="UTF-8" standalone="no"?>
<!-- Created with Inkscape (http://www.inkscape.org/) -->
<svg
   xmlns:dc="http://purl.org/dc/elements/1.1/"
   xmlns:cc="http://creativecommons.org/ns#"
   xmlns:rdf="http://www.w3.org/1999/02/22-rdf-syntax-ns#"
   xmlns:svg="http://www.w3.org/2000/svg"
   xmlns="http://www.w3.org/2000/svg"
   xmlns:xlink="http://www.w3.org/1999/xlink"
   xmlns:sodipodi="http://sodipodi.sourceforge.net/DTD/sodipodi-0.dtd"
   xmlns:inkscape="http://www.inkscape.org/namespaces/inkscape"
   width="128"
   height="128"
   id="svg2"
   sodipodi:version="0.32"
   inkscape:version="0.46+devel"
   version="1.0"
   enable-background="new"
   sodipodi:docname="notok-hermes-cleanup.svg"
   inkscape:output_extension="org.inkscape.output.svg.inkscape"
   inkscape:export-filename="dialog-ok-apply.png"
   inkscape:export-xdpi="15.46875"
   inkscape:export-ydpi="15.46875">
  <sodipodi:namedview
     id="base"
     pagecolor="#ffffff"
     bordercolor="#666666"
     borderopacity="1.0"
     gridtolerance="10000"
     guidetolerance="10"
     objecttolerance="10"
     inkscape:pageopacity="0.0"
     inkscape:pageshadow="2"
     inkscape:zoom="4.203125"
     inkscape:cx="64"
     inkscape:cy="64"
     inkscape:document-units="px"
     inkscape:current-layer="layer1"
     showgrid="true"
     inkscape:window-width="1280"
     inkscape:window-height="746"
     inkscape:window-x="-3"
     inkscape:window-y="-4">
    <inkscape:grid
       enabled="true"
       visible="true"
       empspacing="4"
       spacingy="1px"
       spacingx="1px"
       id="grid2363"
       type="xygrid" />
  </sodipodi:namedview>
  <defs
     id="defs4">
    <linearGradient
       x1="63.4995"
       y1="-79.239304"
       x2="63.4995"
       y2="9.3268995"
       id="linearGradient11529"
       gradientUnits="userSpaceOnUse"
       gradientTransform="translate(-68.240592,44.013228)">
      <stop
         id="stop11531"
         style="stop-color:#73a3e7;stop-opacity:1"
         offset="0" />
      <stop
         id="stop11533"
         style="stop-color:#83b1f5;stop-opacity:1"
         offset="0.25782886" />
      <stop
         id="stop11535"
         style="stop-color:#bcd6fc;stop-opacity:1"
         offset="0.45412228" />
      <stop
         id="stop11537"
         style="stop-color:#659fee;stop-opacity:1"
         offset="0.72798526" />
      <stop
         id="stop11539"
         style="stop-color:#0066ff;stop-opacity:1"
         offset="1" />
    </linearGradient>
    <linearGradient
       inkscape:collect="always"
       id="linearGradient9043">
      <stop
         style="stop-color:#ffffff;stop-opacity:1;"
         offset="0"
         id="stop9045" />
      <stop
         style="stop-color:#ffffff;stop-opacity:0;"
         offset="1"
         id="stop9047" />
    </linearGradient>
    <filter
       id="filter13548"
       inkscape:collect="always">
      <feGaussianBlur
         id="feGaussianBlur13550"
         stdDeviation="0.57932452"
         inkscape:collect="always" />
    </filter>
    <filter
       id="filter13702"
       inkscape:collect="always">
      <feGaussianBlur
         id="feGaussianBlur13704"
         stdDeviation="0.575625"
         inkscape:collect="always" />
    </filter>
    <linearGradient
       y2="352"
       x2="-36"
       y1="480"
       x1="-36"
       gradientUnits="userSpaceOnUse"
       id="linearGradient13726-451"
       xlink:href="#linearGradient2956-202"
       inkscape:collect="always" />
    <linearGradient
       id="linearGradient2956-202"
       inkscape:collect="always">
      <stop
         id="stop3993"
         offset="0"
         style="stop-color:#1d1d1d;stop-opacity:1;" />
      <stop
         id="stop3995"
         offset="1"
         style="stop-color:#525252;stop-opacity:1" />
    </linearGradient>
    <radialGradient
       r="51.352715"
       fy="399.4328"
       fx="-35.466053"
       cy="399.4328"
       cx="-35.466053"
       gradientTransform="matrix(1.3137777,1.1045782e-2,-1.3004855e-2,1.5467886,16.323023,-218.01355)"
       gradientUnits="userSpaceOnUse"
       id="radialGradient13728-646"
       xlink:href="#linearGradient2998-179"
       inkscape:collect="always" />
    <linearGradient
       id="linearGradient2998-179"
       inkscape:collect="always">
      <stop
         id="stop3999"
         offset="0"
         style="stop-color:#ffffff;stop-opacity:1;" />
      <stop
         id="stop4001"
         offset="1"
         style="stop-color:#ffffff;stop-opacity:0;" />
    </linearGradient>
    <radialGradient
       r="51.352715"
       fy="399.92758"
       fx="-35.954983"
       cy="399.92758"
       cx="-35.954983"
       gradientTransform="matrix(1.0800997,1.1045468e-2,-1.1835263e-2,1.1573312,7.5682137,-62.451529)"
       gradientUnits="userSpaceOnUse"
       id="radialGradient13730-585"
       xlink:href="#linearGradient2981-825"
       inkscape:collect="always" />
    <linearGradient
       id="linearGradient2981-825"
       inkscape:collect="always">
      <stop
         id="stop4005"
         offset="0"
         style="stop-color:#0c0c0c;stop-opacity:1;" />
      <stop
         id="stop4007"
         offset="1"
         style="stop-color:#0c0c0c;stop-opacity:0;" />
    </linearGradient>
    <linearGradient
       y2="398.62027"
       x2="15.53747"
       y1="398.62027"
       x1="-86.65003"
       gradientUnits="userSpaceOnUse"
       id="linearGradient13732-195"
       xlink:href="#linearGradient13706-836"
       inkscape:collect="always" />
    <linearGradient
       id="linearGradient13706-836"
       inkscape:collect="always">
      <stop
         id="stop4011"
         offset="0"
         style="stop-color:#ffffff;stop-opacity:1" />
      <stop
         id="stop4013"
         offset="1"
         style="stop-color:#cccccc;stop-opacity:1" />
    </linearGradient>
    <radialGradient
       r="47.352715"
       fy="398.20972"
       fx="-57.194805"
       cy="415.52728"
       cx="-36"
       gradientTransform="matrix(1,0,0,2.1118116,0,-457.51534)"
       gradientUnits="userSpaceOnUse"
       id="radialGradient13734-995"
       xlink:href="#linearGradient13503-140"
       inkscape:collect="always" />
    <linearGradient
       id="linearGradient13503-140">
      <stop
         id="stop4017"
         offset="0"
         style="stop-color:#a1a1a1;stop-opacity:1" />
      <stop
         id="stop4019"
         offset="1"
         style="stop-color:#202020;stop-opacity:1" />
    </linearGradient>
    <radialGradient
       r="47.352715"
       fy="379.53922"
       fx="-16"
       cy="379.53922"
       cx="-16"
       gradientTransform="matrix(-0.8910642,-0.4538772,0.8936385,-1.7544157,-369.42788,1002.6075)"
       gradientUnits="userSpaceOnUse"
       id="radialGradient13736-774"
       xlink:href="#linearGradient2971-477"
       inkscape:collect="always" />
    <linearGradient
       id="linearGradient2971-477"
       inkscape:collect="always">
      <stop
         id="stop4023"
         offset="0"
         style="stop-color:#e5e5e5;stop-opacity:1;" />
      <stop
         id="stop4025"
         offset="1"
         style="stop-color:#e5e5e5;stop-opacity:0;" />
    </linearGradient>
    <linearGradient
       y2="460"
       x2="-60"
       y1="352"
       x1="-24"
       gradientUnits="userSpaceOnUse"
       id="linearGradient13738-752"
       xlink:href="#linearGradient13609-202"
       inkscape:collect="always" />
    <linearGradient
       id="linearGradient13609-202"
       inkscape:collect="always">
      <stop
         id="stop4029"
         offset="0"
         style="stop-color:#ffffff;stop-opacity:1;" />
      <stop
         id="stop4031"
         offset="1"
         style="stop-color:#ffffff;stop-opacity:0;" />
    </linearGradient>
    <linearGradient
       y2="348"
       x2="-16"
       y1="460"
       x1="-36"
       gradientUnits="userSpaceOnUse"
       id="linearGradient13740-52"
       xlink:href="#linearGradient3415-388"
       inkscape:collect="always" />
    <linearGradient
       id="linearGradient3415-388"
       inkscape:collect="always">
      <stop
         id="stop4035"
         offset="0"
         style="stop-color:#ececec;stop-opacity:1;" />
      <stop
         id="stop4037"
         offset="1"
         style="stop-color:#ececec;stop-opacity:0;" />
    </linearGradient>
    <linearGradient
       y2="388"
       x2="-68"
       y1="356"
       x1="28"
       gradientUnits="userSpaceOnUse"
       id="linearGradient13742-854"
       xlink:href="#linearGradient13623-166"
       inkscape:collect="always" />
    <linearGradient
       id="linearGradient13623-166"
       inkscape:collect="always">
      <stop
         id="stop4041"
         offset="0"
         style="stop-color:#ffffff;stop-opacity:1;" />
      <stop
         id="stop4043"
         offset="1"
         style="stop-color:#ffffff;stop-opacity:0;" />
    </linearGradient>
    <filter
       id="filter3396"
       height="1.0607916"
       y="-0.030395781"
       width="1.2281187"
       x="-0.11405937"
       inkscape:collect="always">
      <feGaussianBlur
         id="feGaussianBlur3398"
         stdDeviation="0.8554453"
         inkscape:collect="always" />
    </filter>
    <filter
       id="filter3274"
       inkscape:collect="always">
      <feGaussianBlur
         id="feGaussianBlur3276"
         stdDeviation="1.4432763"
         inkscape:collect="always" />
    </filter>
    <filter
       id="filter4102"
       height="1.143004"
       y="-0.071501976"
       width="1.2035852"
       x="-0.1017926"
       inkscape:collect="always">
      <feGaussianBlur
         id="feGaussianBlur4104"
         stdDeviation="0.35786462"
         inkscape:collect="always" />
    </filter>
    <filter
       id="filter3950"
       inkscape:collect="always">
      <feGaussianBlur
         id="feGaussianBlur3952"
         stdDeviation="0.45503695"
         inkscape:collect="always" />
    </filter>
    <linearGradient
       id="linearGradient3954"
       inkscape:collect="always">
      <stop
         id="stop3956"
         offset="0"
         style="stop-color:#ffffbf;stop-opacity:1" />
      <stop
         id="stop3958"
         offset="1"
         style="stop-color:#ffffbf;stop-opacity:0" />
    </linearGradient>
    <linearGradient
       id="linearGradient3971"
       inkscape:collect="always">
      <stop
         id="stop3973"
         offset="0"
         style="stop-color:#ffffff;stop-opacity:1;" />
      <stop
         id="stop3975"
         offset="1"
         style="stop-color:#ffffff;stop-opacity:0;" />
    </linearGradient>
    <linearGradient
       id="linearGradient4056"
       inkscape:collect="always">
      <stop
         id="stop4058"
         offset="0"
         style="stop-color:#ffd500;stop-opacity:1" />
      <stop
         id="stop4060"
         offset="1"
         style="stop-color:#ffff99;stop-opacity:0" />
    </linearGradient>
    <linearGradient
       inkscape:collect="always"
       id="linearGradient3252">
      <stop
         style="stop-color:#ffffff;stop-opacity:1"
         offset="0"
         id="stop3254" />
      <stop
         style="stop-color:#ffffff;stop-opacity:0"
         offset="1"
         id="stop3256" />
    </linearGradient>
    <linearGradient
       id="linearGradient3282"
       inkscape:collect="always">
      <stop
         id="stop3284"
         offset="0"
         style="stop-color:#ac4311;stop-opacity:1;" />
      <stop
         id="stop3286"
         offset="1"
         style="stop-color:#ea5418;stop-opacity:1" />
    </linearGradient>
    <linearGradient
       id="linearGradient3377"
       inkscape:collect="always">
      <stop
         id="stop3379"
         offset="0"
         style="stop-color:#ffffff;stop-opacity:1;" />
      <stop
         id="stop3381"
         offset="1"
         style="stop-color:#ffffff;stop-opacity:0;" />
    </linearGradient>
    <linearGradient
       id="linearGradient3400"
       inkscape:collect="always">
      <stop
         id="stop3402"
         offset="0"
         style="stop-color:#ffff00;stop-opacity:1;" />
      <stop
         id="stop3404"
         offset="1"
         style="stop-color:#ffff00;stop-opacity:0;" />
    </linearGradient>
    <linearGradient
       inkscape:collect="always"
       xlink:href="#linearGradient11529"
       id="linearGradient11208"
       gradientUnits="userSpaceOnUse"
       gradientTransform="matrix(0.7900471,0,0,-0.8812186,75.434695,62.12804)"
       x1="-42.392754"
       y1="1.9626162"
       x2="-42.571793"
       y2="69.36438" />
    <radialGradient
       inkscape:collect="always"
       xlink:href="#linearGradient9043"
       id="radialGradient11210"
       gradientUnits="userSpaceOnUse"
       gradientTransform="matrix(1,0,0,0.1538462,0,90.486293)"
       cx="58.907265"
       cy="106.93835"
       fx="58.907265"
       fy="106.93835"
       r="58.907265" />
    <radialGradient
       inkscape:collect="always"
       xlink:href="#linearGradient4056"
       id="radialGradient11212"
       gradientUnits="userSpaceOnUse"
       gradientTransform="matrix(6.0661534,-3.5024294,0.3999547,0.6927683,-69.504713,-35.986583)"
       cx="22.004967"
       cy="102"
       fx="22.004967"
       fy="102"
       r="5.9950326" />
    <radialGradient
       inkscape:collect="always"
       xlink:href="#linearGradient4056"
       id="radialGradient11214"
       gradientUnits="userSpaceOnUse"
       gradientTransform="matrix(-6.0661534,-3.5024294,-0.3999547,0.6927683,345.46186,-35.986583)"
       cx="22.004967"
       cy="102"
       fx="22.004967"
       fy="102"
       r="5.9950326" />
    <radialGradient
       inkscape:collect="always"
       xlink:href="#linearGradient3400"
       id="radialGradient11216"
       gradientUnits="userSpaceOnUse"
       gradientTransform="matrix(4.5093795,0,0,4.2142344,-223.72294,-220.10349)"
       cx="63.75"
       cy="68.477737"
       fx="63.75"
       fy="68.477737"
       r="9" />
    <linearGradient
       inkscape:collect="always"
       xlink:href="#linearGradient3954"
       id="linearGradient11218"
       gradientUnits="userSpaceOnUse"
       x1="72.742889"
       y1="102.71508"
       x2="72.742889"
       y2="42.471062" />
    <linearGradient
       inkscape:collect="always"
       xlink:href="#linearGradient3971"
       id="linearGradient11220"
       gradientUnits="userSpaceOnUse"
       gradientTransform="matrix(0.7431177,0,0,0.7992775,90.028939,-123.92135)"
       x1="65.980019"
       y1="15.087444"
       x2="67.189468"
       y2="82.910049" />
    <radialGradient
       inkscape:collect="always"
       xlink:href="#linearGradient3400"
       id="radialGradient11222"
       gradientUnits="userSpaceOnUse"
       gradientTransform="matrix(4.5093795,0,0,1.3282315,-223.72294,-5.5119394)"
       cx="63.75"
       cy="74.355972"
       fx="63.75"
       fy="74.355972"
       r="9" />
    <linearGradient
       inkscape:collect="always"
       xlink:href="#linearGradient3282"
       id="linearGradient11224"
       gradientUnits="userSpaceOnUse"
       gradientTransform="matrix(0.9040635,0,0,0.9040635,80.058523,-134.13576)"
       x1="67.096779"
       y1="35.311508"
       x2="67.096779"
       y2="105.4052" />
    <linearGradient
       inkscape:collect="always"
       xlink:href="#linearGradient3252"
       id="linearGradient11226"
       gradientUnits="userSpaceOnUse"
       gradientTransform="matrix(0.7487306,0,0,0.7992775,89.96069,-123.69017)"
       x1="45.619381"
       y1="3.0364432"
       x2="72.923073"
       y2="77.707237" />
    <linearGradient
       inkscape:collect="always"
       xlink:href="#linearGradient3377"
       id="linearGradient11228"
       gradientUnits="userSpaceOnUse"
       gradientTransform="matrix(0.7319219,0,0,0.7319219,91.032548,-122.3479)"
       x1="85.398132"
       y1="82.805801"
       x2="61.264969"
       y2="46.195744" />
  </defs>
  <metadata
     id="metadata7">
    <rdf:RDF>
      <cc:Work
         rdf:about="">
        <dc:format>image/svg+xml</dc:format>
        <dc:type
           rdf:resource="http://purl.org/dc/dcmitype/StillImage" />
      </cc:Work>
    </rdf:RDF>
  </metadata>
  <g
     id="layer1"
     inkscape:groupmode="layer"
     inkscape:label="Layer 1">
    <g
       transform="matrix(0.9107996,0,0,0.9107996,82.218957,-301.36697)"
       id="g13714">
      <path
         d="M -55.581586,459.94499 C -57.429892,459.94499 -58.933269,458.17539 -58.933269,456.00102 C -58.933269,456.00102 -58.933269,404.21987 -58.933269,400.54338 C -61.798251,400.54338 -79.466209,400.54338 -79.466209,400.54338 C -80.813968,400.54338 -82.024275,399.60061 -82.550765,398.14222 C -82.551641,398.13814 -82.818767,396.5994 -82.818767,396.5994 C -82.818767,395.57324 -82.485935,394.60097 -81.880767,393.86364 L -37.881645,340.12882 C -37.254006,339.36199 -36.373073,338.92061 -35.467072,338.92061 C -34.56021,338.92061 -33.680999,339.36199 -33.0525,340.12882 L 10.947498,393.86364 C 11.882025,395.00574 12.145708,396.6828 11.618372,398.14222 C 11.089284,399.60264 9.8789778,400.54236 8.5329264,400.54236 C 8.5329264,400.54236 -9.1350176,400.54236 -12,400.54236 C -12,404.21987 -12,456 -12,456 C -12.000875,458.17539 -13.504238,459.94499 -15.352558,459.94499 L -55.581586,459.94499 z"
         id="path13457"
         style="fill:none;fill-opacity:1;stroke:#2d2d2d;stroke-width:9.70628452;stroke-miterlimit:4;stroke-dasharray:none;stroke-opacity:1;filter:url(#filter13548)" />
      <path
         style="fill:none;fill-opacity:1;stroke:url(#linearGradient13726-451);stroke-width:9.70628452;stroke-miterlimit:4;stroke-dasharray:none;stroke-opacity:1"
         id="path13552"
         d="M -55.581586,459.94499 C -57.429892,459.94499 -58.933269,458.17539 -58.933269,456.00102 C -58.933269,456.00102 -58.933269,404.21987 -58.933269,400.54338 C -61.798251,400.54338 -79.466209,400.54338 -79.466209,400.54338 C -80.813968,400.54338 -82.024275,399.60061 -82.550765,398.14222 C -82.551641,398.13814 -82.818767,396.5994 -82.818767,396.5994 C -82.818767,395.57324 -82.485935,394.60097 -81.880767,393.86364 L -37.881645,340.12882 C -37.254006,339.36199 -36.373073,338.92061 -35.467072,338.92061 C -34.56021,338.92061 -33.680999,339.36199 -33.0525,340.12882 L 10.947498,393.86364 C 11.882025,395.00574 12.145708,396.6828 11.618372,398.14222 C 11.089284,399.60264 9.8789778,400.54236 8.5329264,400.54236 C 8.5329264,400.54236 -9.1350176,400.54236 -12,400.54236 C -12,404.21987 -12,456 -12,456 C -12.000875,458.17539 -13.504238,459.94499 -15.352558,459.94499 L -55.581586,459.94499 z" />
      <path
         d="M -55.581586,459.94499 C -57.429892,459.94499 -58.933269,458.17539 -58.933269,456.00102 C -58.933269,456.00102 -58.933269,404.21987 -58.933269,400.54338 C -61.798251,400.54338 -79.466209,400.54338 -79.466209,400.54338 C -80.813968,400.54338 -82.024275,399.60061 -82.550765,398.14222 C -82.551641,398.13814 -82.818767,396.5994 -82.818767,396.5994 C -82.818767,395.57324 -82.485935,394.60097 -81.880767,393.86364 L -37.881645,340.12882 C -37.254006,339.36199 -36.373073,338.92061 -35.467072,338.92061 C -34.56021,338.92061 -33.680999,339.36199 -33.0525,340.12882 L 10.947498,393.86364 C 11.882025,395.00574 12.145708,396.6828 11.618372,398.14222 C 11.089284,399.60264 9.8789778,400.54236 8.5329264,400.54236 C 8.5329264,400.54236 -9.1350176,400.54236 -12,400.54236 C -12,404.21987 -12,456 -12,456 C -12.000875,458.17539 -13.504238,459.94499 -15.352558,459.94499 L -55.581586,459.94499 z"
         id="path13574"
         style="fill:none;fill-opacity:1;stroke:url(#radialGradient13728-646);stroke-width:9.70628452;stroke-miterlimit:4;stroke-dasharray:none;stroke-opacity:1" />
      <path
         style="fill:none;fill-opacity:1;stroke:url(#radialGradient13730-585);stroke-width:9.70628452;stroke-miterlimit:4;stroke-dasharray:none;stroke-opacity:1"
         id="path13582"
         d="M -55.581586,459.94499 C -57.429892,459.94499 -58.933269,458.17539 -58.933269,456.00102 C -58.933269,456.00102 -58.933269,404.21987 -58.933269,400.54338 C -61.798251,400.54338 -79.466209,400.54338 -79.466209,400.54338 C -80.813968,400.54338 -82.024275,399.60061 -82.550765,398.14222 C -82.551641,398.13814 -82.818767,396.5994 -82.818767,396.5994 C -82.818767,395.57324 -82.485935,394.60097 -81.880767,393.86364 L -37.881645,340.12882 C -37.254006,339.36199 -36.373073,338.92061 -35.467072,338.92061 C -34.56021,338.92061 -33.680999,339.36199 -33.0525,340.12882 L 10.947498,393.86364 C 11.882025,395.00574 12.145708,396.6828 11.618372,398.14222 C 11.089284,399.60264 9.8789778,400.54236 8.5329264,400.54236 C 8.5329264,400.54236 -9.1350176,400.54236 -12,400.54236 C -12,404.21987 -12,456 -12,456 C -12.000875,458.17539 -13.504238,459.94499 -15.352558,459.94499 L -55.581586,459.94499 z" />
      <path
         style="opacity:0.70200572;fill:url(#linearGradient13732-195);fill-opacity:1;stroke:none;stroke-width:7.99999952;stroke-miterlimit:4;stroke-dasharray:none;stroke-opacity:1;filter:url(#filter13702)"
         d="M -35.58753,334.58902 C -36.38125,334.58902 -37.1537,334.7408 -37.86878,334.99527 L -37.05628,338.90152 L -36.05628,343.71402 L -35.58753,343.15152 L -35.11878,343.74527 L -34.08753,338.93277 L -33.27503,334.99527 C -34.00269,334.73466 -34.78489,334.58903 -35.58753,334.58902 z M -78.46253,395.55777 L -83.27503,397.12027 L -86.65003,398.21402 C -86.622164,398.38116 -86.587758,398.65047 -86.58753,398.65152 L -86.52503,398.93277 L -86.43128,399.18277 C -86.035027,400.28042 -85.393908,401.29394 -84.55628,402.12027 L -81.83753,399.68277 L -77.93128,396.21402 C -78.048991,396.21402 -78.814112,396.21402 -78.86878,396.21402 C -78.879541,396.15113 -78.889992,396.14769 -78.90003,396.08902 L -78.46253,395.55777 z M 7.2874707,395.55777 L 7.7249707,396.08902 C 7.7093107,396.06989 7.7190107,396.17282 7.7249707,396.21402 C 7.6708607,396.21402 6.8778907,396.21402 6.7562207,396.21402 L 10.66247,399.68277 L 13.38122,402.12027 C 14.21941,401.29387 14.85879,400.27981 15.25622,399.18277 C 15.37064,398.86611 15.45966,398.53653 15.53747,398.21402 L 12.13122,397.12027 L 7.2874707,395.55777 z M -16.11878,455.24527 C -16.11878,455.25075 -16.11878,455.61948 -16.11878,455.62027 L -16.49378,455.62027 L -13.21253,460.58902 L -11.86878,462.62027 C -10.72944,461.92839 -9.8249293,460.91841 -9.1812793,459.74527 L -11.15003,458.46402 L -16.11878,455.24527 z M -55.05628,455.33902 L -59.90003,458.46402 L -61.96253,459.80777 C -61.304072,460.97924 -60.367314,461.96884 -59.21253,462.65152 L -57.83753,460.58902 L -54.55628,455.62027 L -55.05628,455.62027 C -55.05628,455.61968 -55.05628,455.34225 -55.05628,455.33902 z"
         id="path13631" />
      <path
         d="M -55.581586,459.94499 C -57.429892,459.94499 -58.933269,458.17539 -58.933269,456.00102 C -58.933269,456.00102 -58.933269,404.21987 -58.933269,400.54338 C -61.798251,400.54338 -79.466209,400.54338 -79.466209,400.54338 C -80.813968,400.54338 -82.024275,399.60061 -82.550765,398.14222 C -82.551641,398.13814 -82.818767,396.5994 -82.818767,396.5994 C -82.818767,395.57324 -82.485935,394.60097 -81.880767,393.86364 L -37.881645,340.12882 C -37.254006,339.36199 -36.373073,338.92061 -35.467072,338.92061 C -34.56021,338.92061 -33.680999,339.36199 -33.0525,340.12882 L 10.947498,393.86364 C 11.882025,395.00574 12.145708,396.6828 11.618372,398.14222 C 11.089284,399.60264 9.8789778,400.54236 8.5329264,400.54236 C 8.5329264,400.54236 -9.1350176,400.54236 -12,400.54236 C -12,404.21987 -12,456 -12,456 C -12.000875,458.17539 -13.504238,459.94499 -15.352558,459.94499 L -55.581586,459.94499 z"
         id="path13586"
         style="fill:url(#radialGradient13734-995);fill-opacity:1;stroke:none;stroke-width:7.99999952;stroke-miterlimit:4;stroke-dasharray:none;stroke-opacity:1" />
      <path
         style="fill:url(#radialGradient13736-774);fill-opacity:1;stroke:none;stroke-width:7.99999952;stroke-miterlimit:4;stroke-dasharray:none;stroke-opacity:1"
         d="M -35.46875,338.90625 C -36.374751,338.90625 -37.247361,339.35818 -37.875,340.125 L -81.875,393.875 C -82.480168,394.61233 -82.812503,395.56759 -82.8125,396.59375 C -82.8125,396.59375 -82.563375,398.15218 -82.5625,398.15625 C -82.03601,399.61464 -80.816509,400.53126 -79.46875,400.53125 C -79.46875,400.53125 -61.802481,400.53126 -58.9375,400.53125 C -58.9375,400.94964 -58.9375,405.32656 -58.9375,406.84375 C -30.406175,402.13256 -7.7090267,395.91888 8.3125,390.65625 L -33.0625,340.125 C -33.690999,339.35817 -34.561888,338.90624 -35.46875,338.90625 z"
         id="path13596" />
      <path
         style="fill:none;fill-opacity:1;stroke:url(#linearGradient13738-752);stroke-width:1.21328568;stroke-miterlimit:4;stroke-dasharray:none;stroke-opacity:1"
         id="path13607"
         d="M -55.581586,459.94499 C -57.429892,459.94499 -58.933269,458.17539 -58.933269,456.00102 C -58.933269,456.00102 -58.933269,404.21987 -58.933269,400.54338 C -61.798251,400.54338 -79.466209,400.54338 -79.466209,400.54338 C -80.813968,400.54338 -82.024275,399.60061 -82.550765,398.14222 C -82.551641,398.13814 -82.818767,396.5994 -82.818767,396.5994 C -82.818767,395.57324 -82.485935,394.60097 -81.880767,393.86364 L -37.881645,340.12882 C -37.254006,339.36199 -36.373073,338.92061 -35.467072,338.92061 C -34.56021,338.92061 -33.680999,339.36199 -33.0525,340.12882 L 10.947498,393.86364 C 11.882025,395.00574 12.145708,396.6828 11.618372,398.14222 C 11.089284,399.60264 9.8789778,400.54236 8.5329264,400.54236 C 8.5329264,400.54236 -9.1350176,400.54236 -12,400.54236 C -12,404.21987 -12,456 -12,456 C -12.000875,458.17539 -13.504238,459.94499 -15.352558,459.94499 L -55.581586,459.94499 z" />
      <path
         d="M -55.581586,459.94499 C -57.429892,459.94499 -58.933269,458.17539 -58.933269,456.00102 C -58.933269,456.00102 -58.933269,404.21987 -58.933269,400.54338 C -61.798251,400.54338 -79.466209,400.54338 -79.466209,400.54338 C -80.813968,400.54338 -82.024275,399.60061 -82.550765,398.14222 C -82.551641,398.13814 -82.818767,396.5994 -82.818767,396.5994 C -82.818767,395.57324 -82.485935,394.60097 -81.880767,393.86364 L -37.881645,340.12882 C -37.254006,339.36199 -36.373073,338.92061 -35.467072,338.92061 C -34.56021,338.92061 -33.680999,339.36199 -33.0525,340.12882 L 10.947498,393.86364 C 11.882025,395.00574 12.145708,396.6828 11.618372,398.14222 C 11.089284,399.60264 9.8789778,400.54236 8.5329264,400.54236 C 8.5329264,400.54236 -9.1350176,400.54236 -12,400.54236 C -12,404.21987 -12,456 -12,456 C -12.000875,458.17539 -13.504238,459.94499 -15.352558,459.94499 L -55.581586,459.94499 z"
         id="path13617"
         style="fill:none;fill-opacity:1;stroke:url(#linearGradient13740-52);stroke-width:1.21328568;stroke-miterlimit:4;stroke-dasharray:none;stroke-opacity:1" />
      <path
         id="path13621"
         d="M -35.46875,338.90625 C -36.374751,338.90625 -37.247361,339.35818 -37.875,340.125 L -81.875,393.875 C -82.480168,394.61233 -82.812503,395.56759 -82.8125,396.59375 C -82.8125,396.59375 -82.563375,398.15218 -82.5625,398.15625 C -82.03601,399.61464 -80.816509,400.53126 -79.46875,400.53125 C -79.46875,400.53125 -61.802481,400.53126 -58.9375,400.53125 C -58.9375,400.94964 -58.9375,405.32656 -58.9375,406.84375 C -30.406175,402.13256 -7.7090267,395.91888 8.3125,390.65625 L -33.0625,340.125 C -33.690999,339.35817 -34.561888,338.90624 -35.46875,338.90625 z"
         style="fill:none;fill-opacity:1;stroke:url(#linearGradient13742-854);stroke-width:1.21328568;stroke-miterlimit:4;stroke-dasharray:none;stroke-opacity:1" />
    </g>
    <g
       id="g11195"
       transform="matrix(1.1893153,0,0,1.1893153,-87.614624,168.22019)">
      <path
         transform="matrix(0.8027154,0,0,0.8053039,86.501766,-123.96501)"
         sodipodi:nodetypes="cccsccsccc"
         id="path4137"
         d="M 63.594525,15.80685 C 61.088483,15.954871 58.821624,17.466363 57.570338,19.823647 L 16.791222,96.142808 C 15.466493,98.629922 15.467558,101.69401 16.794017,104.18005 C 18.120475,106.66607 20.570634,108.19604 23.220884,108.1932 L 104.77911,108.1932 C 107.42937,108.19604 109.87952,106.66607 111.20598,104.18005 C 112.53244,101.69401 112.5335,98.629922 111.20877,96.142808 L 70.429661,19.823647 C 69.033862,17.19393 66.390069,15.640255 63.594525,15.80685 z"
         style="fill:#ffc404;fill-opacity:1;fill-rule:evenodd;stroke:url(#linearGradient11208);stroke-width:1.82068181;stroke-linecap:round;stroke-linejoin:round;stroke-miterlimit:4;stroke-dasharray:none;stroke-opacity:1;filter:url(#filter3274)" />
      <path
         transform="matrix(0.7992469,0,0,0.7992775,85.724927,-123.92135)"
         id="path4051"
         d="M 63.59375,16 C 62.204553,16.082054 60.889465,16.602887 59.78125,17.4375 L 64,28 L 68.21875,17.4375 C 66.88987,16.43384 65.2712,15.900036 63.59375,16 z"
         style="opacity:0.92195123;fill:url(#radialGradient11210);fill-opacity:1;fill-rule:evenodd;stroke:none;stroke-width:16;stroke-linecap:round;stroke-linejoin:round;stroke-miterlimit:4;stroke-dasharray:none;stroke-opacity:1;filter:url(#filter4102)" />
      <path
         id="path4041"
         d="M 109.56768,-47.190719 L 100.17653,-45.617138 C 99.789156,-44.009977 99.988035,-42.27328 100.77597,-40.796496 C 101.8317,-38.817774 103.7868,-37.597126 105.89614,-37.599388 L 107.96919,-37.599388 L 109.56768,-47.190719 z"
         style="opacity:0.80102036;fill:url(#radialGradient11212);fill-opacity:1;fill-rule:evenodd;stroke:none;stroke-width:16;stroke-linecap:round;stroke-linejoin:round;stroke-miterlimit:4;stroke-dasharray:none;stroke-opacity:1" />
      <path
         style="opacity:0.71938776;fill:url(#radialGradient11214);fill-opacity:1;fill-rule:evenodd;stroke:none;stroke-width:16;stroke-linecap:round;stroke-linejoin:round;stroke-miterlimit:4;stroke-dasharray:none;stroke-opacity:1"
         d="M 166.38947,-47.190719 L 175.78062,-45.617138 C 176.168,-44.009977 175.96912,-42.27328 175.18118,-40.796496 C 174.12545,-38.817774 172.17036,-37.597126 170.06101,-37.599388 L 167.98797,-37.599388 L 166.38947,-47.190719 z"
         id="path4064" />
      <path
         transform="matrix(0.7319219,0,0,0.7319219,91.032548,-122.3479)"
         sodipodi:nodetypes="cccsccc"
         style="font-size:83.71386719px;font-style:normal;font-weight:normal;opacity:0.75;fill:none;fill-opacity:1;stroke:url(#radialGradient11216);stroke-width:4;stroke-linecap:butt;stroke-linejoin:miter;stroke-miterlimit:4;stroke-dasharray:none;stroke-opacity:1;filter:url(#filter3396);font-family:Liberation Sans"
         d="M 63.40625,36.71875 C 60.266222,36.913888 57.331988,39.264296 57.875,44 L 61.4375,79.71875 C 62.189089,79.591351 62.962322,79.5 63.75,79.5 C 64.69875,79.5 65.636426,79.597988 66.53125,79.78125 L 70.09375,44 C 70.784031,39.043508 66.964948,36.497594 63.40625,36.71875 z"
         id="path3394" />
      <path
         transform="matrix(0.7306149,0,0,0.8045463,90.849287,-124.32177)"
         style="fill:none;fill-opacity:1;fill-rule:evenodd;stroke:url(#linearGradient11218);stroke-width:0.95465171;stroke-linecap:round;stroke-linejoin:round;stroke-miterlimit:4;stroke-dasharray:none;stroke-opacity:1;filter:url(#filter3950)"
         d="M 63.78125,20 C 62.429261,20.073701 61.206309,20.826287 60.53125,22 L 16.53125,98 C 15.816569,99.238357 15.817144,100.764 16.532758,102.00181 C 17.248371,103.23963 18.570212,104.00141 20,104 L 108,104 C 109.42979,104.00141 110.75163,103.23963 111.46724,102.00181 C 112.18286,100.764 112.18343,99.238357 111.46875,98 L 67.46875,22 C 66.715728,20.69064 65.289423,19.917051 63.78125,20 L 63.78125,20 z"
         id="path3948"
         sodipodi:nodetypes="cccsccscccc" />
      <path
         id="path3962"
         d="M 137.42592,-107.9358 C 136.42123,-107.87689 135.51243,-107.27537 135.01078,-106.33724 L 115.99161,-70.994196 L 116.01484,-70.994196 L 135.01078,-105.41308 C 135.51243,-106.32757 136.42123,-106.90426 137.42592,-106.96168 C 138.54667,-107.02631 139.60658,-106.43326 140.16616,-105.41308 L 158.62799,-71.993293 C 158.63541,-71.994878 158.64381,-71.991706 158.65122,-71.993293 L 140.16616,-106.33724 C 139.60658,-107.38379 138.54667,-108.0021 137.42592,-107.9358 z"
         style="fill:url(#linearGradient11220);fill-opacity:1;fill-rule:evenodd;stroke:none;stroke-width:8;stroke-linecap:round;stroke-linejoin:round;stroke-miterlimit:4;stroke-dasharray:none;stroke-opacity:1" />
      <path
         transform="matrix(0.7319219,0,0,0.7319219,91.032548,-122.3479)"
         sodipodi:nodetypes="csssc"
         id="path3408"
         d="M 63.75,86.25 C 59.886,86.25 56.75,89.386 56.75,93.25 C 56.75,97.114 59.886,100.25 63.75,100.25 C 67.614,100.25 70.75,97.114 70.75,93.25 C 70.75,89.386 67.614,86.25 63.75,86.25 z"
         style="font-size:83.71386719px;font-style:normal;font-weight:normal;opacity:0.75;fill:none;fill-opacity:1;stroke:url(#radialGradient11222);stroke-width:4;stroke-linecap:butt;stroke-linejoin:miter;stroke-miterlimit:4;stroke-dasharray:none;stroke-opacity:1;filter:url(#filter3396);font-family:Liberation Sans" />
      <path
         id="text3278"
         d="M 137.3818,-100.93968 C 134.54302,-100.76327 131.89028,-98.638349 132.3812,-94.356972 L 135.60192,-62.064955 C 136.2814,-62.180132 136.98046,-62.262719 137.69257,-62.262719 C 138.5503,-62.262719 139.39802,-62.174131 140.207,-62.008451 L 143.42772,-94.356972 C 144.05178,-98.837955 140.59909,-101.13962 137.3818,-100.93968 z M 137.69257,-56.16029 C 134.19926,-56.16029 131.36413,-53.325147 131.36413,-49.831846 C 131.36413,-46.338545 134.19926,-43.503402 137.69257,-43.503402 C 141.18588,-43.503402 144.02101,-46.338545 144.02101,-49.831846 C 144.02101,-53.325147 141.18588,-56.16029 137.69257,-56.16029 z"
         style="font-size:83.71386719px;font-style:normal;font-weight:normal;fill:url(#linearGradient11224);fill-opacity:1;stroke:none;stroke-width:1px;stroke-linecap:butt;stroke-linejoin:miter;stroke-opacity:1;font-family:Liberation Sans" />
      <path
         id="path3895"
         d="M 137.71567,-107.70462 C 136.70339,-107.64571 135.78773,-107.04418 135.28229,-106.10606 L 116.11947,-70.763014 C 121.99673,-69.836982 128.309,-69.339301 134.88453,-69.339301 C 143.54533,-69.339301 151.75065,-70.200137 159.10128,-71.76211 L 140.47661,-106.10606 C 139.9128,-107.1526 138.84488,-107.77092 137.71567,-107.70462 z"
         style="opacity:0.86734697;fill:url(#linearGradient11226);fill-opacity:1;fill-rule:evenodd;stroke:none;stroke-width:8;stroke-linecap:round;stroke-linejoin:round;stroke-miterlimit:4;stroke-dasharray:none;stroke-opacity:1" />
      <path
         id="path3368"
         d="M 138.12715,-107.68659 C 139.0112,-107.55524 139.79895,-106.99517 140.2543,-106.15413 L 158.46085,-72.760191 C 151.27878,-71.241557 143.24995,-70.404317 134.78775,-70.404318 C 128.43869,-70.404318 122.3574,-70.896646 116.67269,-71.776671 L 116.12375,-70.770279 C 122.00101,-69.844247 128.30371,-69.329307 134.87924,-69.329307 C 143.54005,-69.329305 151.75065,-70.191825 159.10128,-71.753799 L 140.48302,-106.10838 C 139.98969,-107.02411 139.09575,-107.59835 138.12715,-107.68659 z"
         style="fill:url(#linearGradient11228);fill-opacity:1;fill-rule:evenodd;stroke:none;stroke-width:8;stroke-linecap:round;stroke-linejoin:round;stroke-miterlimit:4;stroke-dasharray:none;stroke-opacity:1" />
    </g>
  </g>
</svg>
