<?xml version="1.0" encoding="UTF-8" standalone="no"?>
<!-- Created with Inkscape (http://www.inkscape.org/) -->
<svg
   xmlns:dc="http://purl.org/dc/elements/1.1/"
   xmlns:cc="http://creativecommons.org/ns#"
   xmlns:rdf="http://www.w3.org/1999/02/22-rdf-syntax-ns#"
   xmlns:svg="http://www.w3.org/2000/svg"
   xmlns="http://www.w3.org/2000/svg"
   xmlns:xlink="http://www.w3.org/1999/xlink"
   xmlns:sodipodi="http://sodipodi.sourceforge.net/DTD/sodipodi-0.dtd"
   xmlns:inkscape="http://www.inkscape.org/namespaces/inkscape"
   width="128"
   height="128"
   id="svg2"
   sodipodi:version="0.32"
   inkscape:version="1.2.2 (b0a8486541, 2022-12-01)"
   version="1.0"
   enable-background="new"
   sodipodi:docname="sidux-tick3.svg"
   inkscape:output_extension="org.inkscape.output.svg.inkscape"
   inkscape:export-filename="dialog-ok-apply.png"
   inkscape:export-xdpi="15.46875"
   inkscape:export-ydpi="15.46875">
  <defs
     id="defs4">
    <linearGradient
       inkscape:collect="always"
       id="linearGradient13706">
      <stop
         style="stop-color:#ffffff;stop-opacity:1"
         offset="0"
         id="stop13708" />
      <stop
         style="stop-color:#cccccc;stop-opacity:1"
         offset="1"
         id="stop13710" />
    </linearGradient>
    <linearGradient
       inkscape:collect="always"
       id="linearGradient13623">
      <stop
         style="stop-color:#ffffff;stop-opacity:1;"
         offset="0"
         id="stop13625" />
      <stop
         style="stop-color:#ffffff;stop-opacity:0;"
         offset="1"
         id="stop13627" />
    </linearGradient>
    <linearGradient
       inkscape:collect="always"
       id="linearGradient13609">
      <stop
         style="stop-color:#ffffff;stop-opacity:1;"
         offset="0"
         id="stop13611" />
      <stop
         style="stop-color:#ffffff;stop-opacity:0;"
         offset="1"
         id="stop13613" />
    </linearGradient>
    <linearGradient
       id="linearGradient13503">
      <stop
         style="stop-color:#5be012;stop-opacity:1"
         offset="0"
         id="stop13505" />
      <stop
         style="stop-color:#003600;stop-opacity:1"
         offset="1"
         id="stop13507" />
    </linearGradient>
    <linearGradient
       inkscape:collect="always"
       id="linearGradient3436">
      <stop
         style="stop-color:#ffffff;stop-opacity:1;"
         offset="0"
         id="stop3438" />
      <stop
         style="stop-color:#ffffff;stop-opacity:0;"
         offset="1"
         id="stop3440" />
    </linearGradient>
    <linearGradient
       inkscape:collect="always"
       id="linearGradient3415">
      <stop
         style="stop-color:#f0ff80;stop-opacity:1;"
         offset="0"
         id="stop3417" />
      <stop
         style="stop-color:#f0ff80;stop-opacity:0;"
         offset="1"
         id="stop3419" />
    </linearGradient>
    <linearGradient
       inkscape:collect="always"
       id="linearGradient2998">
      <stop
         style="stop-color:#ffffff;stop-opacity:1;"
         offset="0"
         id="stop3000" />
      <stop
         style="stop-color:#ffffff;stop-opacity:0;"
         offset="1"
         id="stop3002" />
    </linearGradient>
    <linearGradient
       inkscape:collect="always"
       id="linearGradient2981">
      <stop
         style="stop-color:#001400;stop-opacity:1;"
         offset="0"
         id="stop2983" />
      <stop
         style="stop-color:#001400;stop-opacity:0;"
         offset="1"
         id="stop2985" />
    </linearGradient>
    <linearGradient
       inkscape:collect="always"
       id="linearGradient2971">
      <stop
         style="stop-color:#bfffbf;stop-opacity:1;"
         offset="0"
         id="stop2973" />
      <stop
         style="stop-color:#bfffbf;stop-opacity:0;"
         offset="1"
         id="stop2975" />
    </linearGradient>
    <linearGradient
       inkscape:collect="always"
       id="linearGradient2956">
      <stop
         style="stop-color:#003100;stop-opacity:1;"
         offset="0"
         id="stop2958" />
      <stop
         style="stop-color:#008c00;stop-opacity:1"
         offset="1"
         id="stop2960" />
    </linearGradient>
    <linearGradient
       inkscape:collect="always"
       id="linearGradient2948">
      <stop
         style="stop-color:#66f515;stop-opacity:1"
         offset="0"
         id="stop2950" />
      <stop
         style="stop-color:#002e00;stop-opacity:1"
         offset="1"
         id="stop2952" />
    </linearGradient>
    <filter
       inkscape:collect="always"
       id="filter3423">
      <feGaussianBlur
         inkscape:collect="always"
         stdDeviation="0.425"
         id="feGaussianBlur3425" />
    </filter>
    <filter
       inkscape:collect="always"
       id="filter3505">
      <feGaussianBlur
         inkscape:collect="always"
         stdDeviation="0.4605"
         id="feGaussianBlur3507" />
    </filter>
    <filter
       inkscape:collect="always"
       id="filter3521">
      <feBlend
         inkscape:collect="always"
         mode="lighten"
         in2="BackgroundImage"
         id="feBlend3523" />
    </filter>
    <filter
       inkscape:collect="always"
       id="filter3525"
       x="-0.18232919"
       width="1.3646584"
       y="-0.10289138"
       height="1.2057828">
      <feGaussianBlur
         inkscape:collect="always"
         stdDeviation="0.45819706"
         id="feGaussianBlur3527" />
    </filter>
    <filter
       inkscape:collect="always"
       id="filter3529"
       x="-0.18232919"
       width="1.3646584"
       y="-0.10289138"
       height="1.2057828">
      <feGaussianBlur
         inkscape:collect="always"
         stdDeviation="0.45819706"
         id="feGaussianBlur3531" />
    </filter>
    <filter
       inkscape:collect="always"
       id="filter3533"
       x="-0.10382974"
       width="1.2076595"
       y="-0.18512974"
       height="1.3702595">
      <feGaussianBlur
         inkscape:collect="always"
         stdDeviation="0.45819702"
         id="feGaussianBlur3535" />
    </filter>
    <filter
       inkscape:collect="always"
       id="filter3537"
       x="-0.18232919"
       width="1.3646584"
       y="-0.10289138"
       height="1.2057828">
      <feGaussianBlur
         inkscape:collect="always"
         stdDeviation="0.45819706"
         id="feGaussianBlur3539" />
    </filter>
    <filter
       inkscape:collect="always"
       id="filter3541"
       x="-0.10382974"
       width="1.2076595"
       y="-0.18512974"
       height="1.3702595">
      <feGaussianBlur
         inkscape:collect="always"
         stdDeviation="0.45819702"
         id="feGaussianBlur3543" />
    </filter>
    <filter
       id="filter7576"
       inkscape:collect="always">
      <feGaussianBlur
         id="feGaussianBlur7578"
         stdDeviation="1.5079688"
         inkscape:collect="always" />
    </filter>
    <linearGradient
       id="linearGradient2315-800-211-797-571-358-772-92">
      <stop
         style="stop-color:#ffffff;stop-opacity:1;"
         offset="0"
         id="stop20619" />
      <stop
         style="stop-color:#b1b1b1;stop-opacity:1;"
         offset="1"
         id="stop20621" />
    </linearGradient>
    <linearGradient
       id="linearGradient9274-828-181-250-454-259-451-773"
       inkscape:collect="always">
      <stop
         id="stop20625"
         offset="0"
         style="stop-color:#ffffff;stop-opacity:1;" />
      <stop
         id="stop20627"
         offset="1"
         style="stop-color:#ffffff;stop-opacity:0;" />
    </linearGradient>
    <linearGradient
       id="linearGradient9274-166-826-779-471-655-331-795"
       inkscape:collect="always">
      <stop
         id="stop20631"
         offset="0"
         style="stop-color:#ffffff;stop-opacity:1;" />
      <stop
         id="stop20633"
         offset="1"
         style="stop-color:#ffffff;stop-opacity:0;" />
    </linearGradient>
    <linearGradient
       id="linearGradient7441"
       inkscape:collect="always">
      <stop
         id="stop7443"
         offset="0"
         style="stop-color:#808080;stop-opacity:1;" />
      <stop
         id="stop7445"
         offset="1"
         style="stop-color:#808080;stop-opacity:0;" />
    </linearGradient>
    <radialGradient
       inkscape:collect="always"
       xlink:href="#linearGradient7441"
       id="radialGradient25365"
       gradientUnits="userSpaceOnUse"
       gradientTransform="matrix(1.8230552,-1.410014e-3,1.4116902e-3,1.8252221,-0.71589,-75.43954)"
       cx="48.328632"
       cy="55.719162"
       fx="48.328632"
       fy="55.719162"
       r="43.864159" />
    <radialGradient
       inkscape:collect="always"
       xlink:href="#linearGradient2315-800-211-797-571-358-772-92"
       id="radialGradient25367"
       gradientUnits="userSpaceOnUse"
       gradientTransform="matrix(0.9031289,9.5506185e-4,-2.0070307e-3,0.7083064,471.88288,-59.687733)"
       cx="-431.58975"
       cy="188.62517"
       fx="-431.58975"
       fy="188.62517"
       r="77.784615" />
    <radialGradient
       inkscape:collect="always"
       xlink:href="#linearGradient9274-828-181-250-454-259-451-773"
       id="radialGradient25369"
       gradientUnits="userSpaceOnUse"
       gradientTransform="matrix(1.4250061,0.101935,-2.7896339e-2,0.6270518,700.36763,4.637756)"
       cx="-419.27335"
       cy="37.536674"
       fx="-419.27335"
       fy="37.536674"
       r="77.78125" />
    <radialGradient
       inkscape:collect="always"
       xlink:href="#linearGradient9274-166-826-779-471-655-331-795"
       id="radialGradient25371"
       gradientUnits="userSpaceOnUse"
       gradientTransform="matrix(1.4250061,0.101935,-2.7896339e-2,0.6270518,700.36763,4.637756)"
       cx="-419.27335"
       cy="37.536674"
       fx="-419.27335"
       fy="37.536674"
       r="77.78125" />
    <filter
       inkscape:collect="always"
       id="filter26296"
       x="-0.43359507"
       width="1.8671901"
       y="-0.3068095"
       height="1.613619">
      <feGaussianBlur
         inkscape:collect="always"
         stdDeviation="17.521527"
         id="feGaussianBlur26298" />
    </filter>
    <linearGradient
       gradientTransform="matrix(0.8191781,0,0,0.9710425,-396.03623,-654.03675)"
       gradientUnits="userSpaceOnUse"
       xlink:href="#XMLID_1_"
       id="linearGradient15701"
       y2="674"
       x2="538.77338"
       y1="793"
       x1="538.77338" />
    <linearGradient
       gradientTransform="translate(-68.240592,44.013228)"
       gradientUnits="userSpaceOnUse"
       id="XMLID_1_"
       y2="9.3268995"
       x2="63.4995"
       y1="-79.239304"
       x1="63.4995">
      <stop
         offset="0"
         style="stop-color:#73a3e7;stop-opacity:1"
         id="stop8559" />
      <stop
         offset="0.13940001"
         style="stop-color:#83b1f5;stop-opacity:1"
         id="stop8561" />
      <stop
         offset="0.3689"
         style="stop-color:#bcd6fc;stop-opacity:1"
         id="stop8563" />
      <stop
         offset="0.5007"
         style="stop-color:#659fee;stop-opacity:1"
         id="stop12" />
      <stop
         offset="1"
         style="stop-color:#0066ff;stop-opacity:1"
         id="stop14" />
    </linearGradient>
    <radialGradient
       inkscape:collect="always"
       xlink:href="#linearGradient2998"
       id="radialGradient13345"
       gradientUnits="userSpaceOnUse"
       gradientTransform="matrix(1.0961401,8.7912098e-2,-0.1002304,1.2497316,1.0599334,-18.687387)"
       cx="53.633381"
       cy="51.919601"
       fx="53.633381"
       fy="51.919601"
       r="52.000004" />
    <radialGradient
       inkscape:collect="always"
       xlink:href="#linearGradient3415"
       id="radialGradient13347"
       gradientUnits="userSpaceOnUse"
       gradientTransform="matrix(1.9646726,3.4242959e-7,-1.0414508e-6,5.9752716,-167.24116,-126.14811)"
       cx="99.765625"
       cy="29.374895"
       fx="99.765625"
       fy="29.374895"
       r="3.015625" />
    <radialGradient
       inkscape:collect="always"
       xlink:href="#linearGradient2998"
       id="radialGradient13349"
       gradientUnits="userSpaceOnUse"
       gradientTransform="matrix(1.9646726,3.4242959e-7,-1.0414508e-6,5.9752716,-96.241137,-146.14811)"
       cx="99.765625"
       cy="29.374895"
       fx="99.765625"
       fy="29.374895"
       r="3.015625" />
    <radialGradient
       inkscape:collect="always"
       xlink:href="#linearGradient2998"
       id="radialGradient13351"
       gradientUnits="userSpaceOnUse"
       gradientTransform="matrix(1.9646726,3.4242959e-7,-1.0414508e-6,5.9752716,-167.24116,-126.14811)"
       cx="99.765625"
       cy="29.374895"
       fx="99.765625"
       fy="29.374895"
       r="3.015625" />
    <radialGradient
       inkscape:collect="always"
       xlink:href="#linearGradient2998"
       id="radialGradient13353"
       gradientUnits="userSpaceOnUse"
       gradientTransform="matrix(1.9646726,3.4242959e-7,-1.0414508e-6,5.9752716,-96.241137,-146.14811)"
       cx="99.765625"
       cy="29.374895"
       fx="99.765625"
       fy="29.374895"
       r="3.015625" />
    <radialGradient
       inkscape:collect="always"
       xlink:href="#linearGradient2998"
       id="radialGradient13355"
       gradientUnits="userSpaceOnUse"
       gradientTransform="matrix(1.9646726,3.4242959e-7,-1.0414508e-6,5.9752716,-96.241137,-146.14811)"
       cx="99.765625"
       cy="29.374895"
       fx="99.765625"
       fy="29.374895"
       r="3.015625" />
    <linearGradient
       inkscape:collect="always"
       xlink:href="#linearGradient3415"
       id="linearGradient13363"
       gradientUnits="userSpaceOnUse"
       x1="71.603867"
       y1="96.884026"
       x2="71.603867"
       y2="47.378731" />
    <linearGradient
       inkscape:collect="always"
       xlink:href="#linearGradient3436"
       id="linearGradient13370"
       gradientUnits="userSpaceOnUse"
       gradientTransform="matrix(0.9462086,0,0,0.9462086,-192.10473,61.046259)"
       x1="83.324677"
       y1="24.0625"
       x2="83.324677"
       y2="69.837845" />
    <linearGradient
       inkscape:collect="always"
       xlink:href="#linearGradient3436"
       id="linearGradient13373"
       gradientUnits="userSpaceOnUse"
       x1="87.533279"
       y1="74.838577"
       x2="77.137749"
       y2="46.277084"
       gradientTransform="matrix(0.9462086,0,0,0.9462086,-192.10473,57.261425)" />
    <linearGradient
       inkscape:collect="always"
       xlink:href="#linearGradient2971"
       id="linearGradient13377"
       gradientUnits="userSpaceOnUse"
       gradientTransform="matrix(0.9462086,0,0,0.9462086,-192.10473,61.046259)"
       x1="83.324677"
       y1="24.0625"
       x2="83.324677"
       y2="89.99453" />
    <radialGradient
       inkscape:collect="always"
       xlink:href="#linearGradient2948"
       id="radialGradient13380"
       gradientUnits="userSpaceOnUse"
       gradientTransform="matrix(1.2411652,5.5325017e-8,-4.1493754e-8,0.9308737,-208.10131,58.504483)"
       cx="54.537579"
       cy="77.542084"
       fx="54.537579"
       fy="99.883759"
       r="48.000004" />
    <radialGradient
       inkscape:collect="always"
       xlink:href="#linearGradient2981"
       id="radialGradient13383"
       gradientUnits="userSpaceOnUse"
       gradientTransform="matrix(0.5342879,8.0733667e-8,-1.3120138e-7,0.8682786,-168.99435,57.397599)"
       cx="52.791927"
       cy="95.459297"
       fx="53.15992"
       fy="87.08094"
       r="52.000004" />
    <linearGradient
       inkscape:collect="always"
       xlink:href="#linearGradient2956"
       id="linearGradient13392"
       gradientUnits="userSpaceOnUse"
       gradientTransform="matrix(0.9462086,0,0,0.9462086,-192.10471,61.046259)"
       x1="89.090881"
       y1="103.89701"
       x2="89.090881"
       y2="30.849478" />
    <linearGradient
       inkscape:collect="always"
       xlink:href="#linearGradient2956"
       id="linearGradient13425"
       gradientUnits="userSpaceOnUse"
       gradientTransform="matrix(0.9462086,0,0,0.9462086,-21.975345,152.99028)"
       x1="89.090881"
       y1="103.89701"
       x2="89.090881"
       y2="30.849478" />
    <radialGradient
       inkscape:collect="always"
       xlink:href="#linearGradient2998"
       id="radialGradient13427"
       gradientUnits="userSpaceOnUse"
       gradientTransform="matrix(1.0961401,8.7912098e-2,-0.1002304,1.2497316,1.0599334,-18.687387)"
       cx="53.633381"
       cy="51.919601"
       fx="53.633381"
       fy="51.919601"
       r="52.000004" />
    <radialGradient
       inkscape:collect="always"
       xlink:href="#linearGradient3415"
       id="radialGradient13429"
       gradientUnits="userSpaceOnUse"
       gradientTransform="matrix(1.9646726,3.4242959e-7,-1.0414508e-6,5.9752716,-167.24116,-126.14811)"
       cx="99.765625"
       cy="29.374895"
       fx="99.765625"
       fy="29.374895"
       r="3.015625" />
    <radialGradient
       inkscape:collect="always"
       xlink:href="#linearGradient2998"
       id="radialGradient13431"
       gradientUnits="userSpaceOnUse"
       gradientTransform="matrix(1.9646726,3.4242959e-7,-1.0414508e-6,5.9752716,-96.241137,-146.14811)"
       cx="99.765625"
       cy="29.374895"
       fx="99.765625"
       fy="29.374895"
       r="3.015625" />
    <radialGradient
       inkscape:collect="always"
       xlink:href="#linearGradient2998"
       id="radialGradient13433"
       gradientUnits="userSpaceOnUse"
       gradientTransform="matrix(1.9646726,3.4242959e-7,-1.0414508e-6,5.9752716,-167.24116,-126.14811)"
       cx="99.765625"
       cy="29.374895"
       fx="99.765625"
       fy="29.374895"
       r="3.015625" />
    <radialGradient
       inkscape:collect="always"
       xlink:href="#linearGradient2998"
       id="radialGradient13435"
       gradientUnits="userSpaceOnUse"
       gradientTransform="matrix(1.9646726,3.4242959e-7,-1.0414508e-6,5.9752716,-96.241137,-146.14811)"
       cx="99.765625"
       cy="29.374895"
       fx="99.765625"
       fy="29.374895"
       r="3.015625" />
    <radialGradient
       inkscape:collect="always"
       xlink:href="#linearGradient2998"
       id="radialGradient13437"
       gradientUnits="userSpaceOnUse"
       gradientTransform="matrix(1.9646726,3.4242959e-7,-1.0414508e-6,5.9752716,-96.241137,-146.14811)"
       cx="99.765625"
       cy="29.374895"
       fx="99.765625"
       fy="29.374895"
       r="3.015625" />
    <radialGradient
       inkscape:collect="always"
       xlink:href="#linearGradient2981"
       id="radialGradient13439"
       gradientUnits="userSpaceOnUse"
       gradientTransform="matrix(0.5342879,8.0733667e-8,-1.3120138e-7,0.8682786,-200.35768,245.97076)"
       cx="52.791927"
       cy="95.459297"
       fx="53.15992"
       fy="87.08094"
       r="52.000004" />
    <radialGradient
       inkscape:collect="always"
       xlink:href="#linearGradient2948"
       id="radialGradient13441"
       gradientUnits="userSpaceOnUse"
       gradientTransform="matrix(1.2411652,5.5325017e-8,-4.1493754e-8,0.9308737,-81.971945,170.4485)"
       cx="54.537579"
       cy="77.542084"
       fx="54.537579"
       fy="99.883759"
       r="48.000004" />
    <linearGradient
       inkscape:collect="always"
       xlink:href="#linearGradient2971"
       id="linearGradient13443"
       gradientUnits="userSpaceOnUse"
       gradientTransform="matrix(0.9462086,0,0,0.9462086,10.35176,175.92394)"
       x1="83.324677"
       y1="24.0625"
       x2="83.324677"
       y2="89.99453" />
    <linearGradient
       inkscape:collect="always"
       xlink:href="#linearGradient3415"
       id="linearGradient13445"
       gradientUnits="userSpaceOnUse"
       x1="71.603867"
       y1="96.884026"
       x2="71.603867"
       y2="47.378731" />
    <linearGradient
       inkscape:collect="always"
       xlink:href="#linearGradient3436"
       id="linearGradient13447"
       gradientUnits="userSpaceOnUse"
       gradientTransform="matrix(0.9462086,0,0,0.9462086,-50.42652,206.93495)"
       x1="87.533279"
       y1="74.838577"
       x2="77.137749"
       y2="46.277084" />
    <linearGradient
       inkscape:collect="always"
       xlink:href="#linearGradient3436"
       id="linearGradient13449"
       gradientUnits="userSpaceOnUse"
       gradientTransform="matrix(0.9462086,0,0,0.9462086,-103.61244,153.8887)"
       x1="83.324677"
       y1="24.0625"
       x2="83.324677"
       y2="69.837845" />
    <filter
       inkscape:collect="always"
       id="filter13548">
      <feGaussianBlur
         inkscape:collect="always"
         stdDeviation="0.57932452"
         id="feGaussianBlur13550" />
    </filter>
    <filter
       inkscape:collect="always"
       id="filter13702">
      <feGaussianBlur
         inkscape:collect="always"
         stdDeviation="0.575625"
         id="feGaussianBlur13704" />
    </filter>
    <linearGradient
       inkscape:collect="always"
       xlink:href="#linearGradient2956"
       id="linearGradient13726"
       gradientUnits="userSpaceOnUse"
       x1="-36"
       y1="480"
       x2="-36"
       y2="352" />
    <radialGradient
       inkscape:collect="always"
       xlink:href="#linearGradient2998"
       id="radialGradient13728"
       gradientUnits="userSpaceOnUse"
       gradientTransform="matrix(1.3137777,1.1045782e-2,-1.3004855e-2,1.5467886,16.323023,-218.01355)"
       cx="-35.466053"
       cy="399.4328"
       fx="-35.466053"
       fy="399.4328"
       r="51.352715" />
    <radialGradient
       inkscape:collect="always"
       xlink:href="#linearGradient2981"
       id="radialGradient13730"
       gradientUnits="userSpaceOnUse"
       gradientTransform="matrix(1.0800997,1.1045468e-2,-1.1835263e-2,1.1573312,7.5682137,-62.451529)"
       cx="-35.954983"
       cy="399.92758"
       fx="-35.954983"
       fy="399.92758"
       r="51.352715" />
    <linearGradient
       inkscape:collect="always"
       xlink:href="#linearGradient13706"
       id="linearGradient13732"
       gradientUnits="userSpaceOnUse"
       x1="-86.65003"
       y1="398.62027"
       x2="15.53747"
       y2="398.62027" />
    <radialGradient
       inkscape:collect="always"
       xlink:href="#linearGradient13503"
       id="radialGradient13734"
       gradientUnits="userSpaceOnUse"
       gradientTransform="matrix(1,0,0,2.1118116,0,-457.51534)"
       cx="-36"
       cy="415.52728"
       fx="-57.194805"
       fy="398.20972"
       r="47.352715" />
    <radialGradient
       inkscape:collect="always"
       xlink:href="#linearGradient2971"
       id="radialGradient13736"
       gradientUnits="userSpaceOnUse"
       gradientTransform="matrix(-0.8910642,-0.4538772,0.8936385,-1.7544157,-369.42788,1002.6075)"
       cx="-16"
       cy="379.53922"
       fx="-16"
       fy="379.53922"
       r="47.352715" />
    <linearGradient
       inkscape:collect="always"
       xlink:href="#linearGradient13609"
       id="linearGradient13738"
       gradientUnits="userSpaceOnUse"
       x1="-24"
       y1="352"
       x2="-60"
       y2="460" />
    <linearGradient
       inkscape:collect="always"
       xlink:href="#linearGradient3415"
       id="linearGradient13740"
       gradientUnits="userSpaceOnUse"
       x1="-36"
       y1="460"
       x2="-16"
       y2="348" />
    <linearGradient
       inkscape:collect="always"
       xlink:href="#linearGradient13623"
       id="linearGradient13742"
       gradientUnits="userSpaceOnUse"
       x1="28"
       y1="356"
       x2="-68"
       y2="388" />
  </defs>
  <sodipodi:namedview
     id="base"
     pagecolor="#ffffff"
     bordercolor="#666666"
     borderopacity="1.0"
     gridtolerance="10000"
     guidetolerance="10"
     objecttolerance="10"
     inkscape:pageopacity="0.0"
     inkscape:pageshadow="2"
     inkscape:zoom="1.7014757"
     inkscape:cx="-14.080312"
     inkscape:cy="-67.550915"
     inkscape:document-units="px"
     inkscape:current-layer="layer1"
     showgrid="true"
     inkscape:window-width="1400"
     inkscape:window-height="990"
     inkscape:window-x="0"
     inkscape:window-y="0">
    <inkscape:grid
       type="xygrid"
       id="grid2363"
       spacingx="1px"
       spacingy="1px"
       empspacing="4"
       visible="true"
       enabled="true" />
  </sodipodi:namedview>
  <metadata
     id="metadata7">
    <rdf:RDF>
      <cc:Work
         rdf:about="">
        <dc:format>image/svg+xml</dc:format>
        <dc:type
           rdf:resource="http://purl.org/dc/dcmitype/StillImage" />
      </cc:Work>
    </rdf:RDF>
  </metadata>
  <g
     inkscape:label="Layer 1"
     inkscape:groupmode="layer"
     id="layer1">
    <g
       id="g13714"
       transform="matrix(0.9107996,0,0,0.9107996,79.868057,-301.36697)"
       style="opacity:1">
      <path
         style="fill:none;fill-opacity:1;stroke:#004d00;stroke-width:9.70628452000000053;stroke-miterlimit:4;stroke-dasharray:none;stroke-opacity:1;filter:url(#filter13548)"
         id="path13457"
         d="M -55.581586,459.94499 C -57.429892,459.94499 -58.933269,458.17539 -58.933269,456.00102 C -58.933269,456.00102 -58.933269,404.21987 -58.933269,400.54338 C -61.798251,400.54338 -79.466209,400.54338 -79.466209,400.54338 C -80.813968,400.54338 -82.024275,399.60061 -82.550765,398.14222 C -82.551641,398.13814 -82.818767,396.5994 -82.818767,396.5994 C -82.818767,395.57324 -82.485935,394.60097 -81.880767,393.86364 L -37.881645,340.12882 C -37.254006,339.36199 -36.373073,338.92061 -35.467072,338.92061 C -34.56021,338.92061 -33.680999,339.36199 -33.0525,340.12882 L 10.947498,393.86364 C 11.882025,395.00574 12.145708,396.6828 11.618372,398.14222 C 11.089284,399.60264 9.8789778,400.54236 8.5329264,400.54236 C 8.5329264,400.54236 -9.1350176,400.54236 -12,400.54236 C -12,404.21987 -12,456 -12,456 C -12.000875,458.17539 -13.504238,459.94499 -15.352558,459.94499 L -55.581586,459.94499 z" />
      <path
         d="M -55.581586,459.94499 C -57.429892,459.94499 -58.933269,458.17539 -58.933269,456.00102 C -58.933269,456.00102 -58.933269,404.21987 -58.933269,400.54338 C -61.798251,400.54338 -79.466209,400.54338 -79.466209,400.54338 C -80.813968,400.54338 -82.024275,399.60061 -82.550765,398.14222 C -82.551641,398.13814 -82.818767,396.5994 -82.818767,396.5994 C -82.818767,395.57324 -82.485935,394.60097 -81.880767,393.86364 L -37.881645,340.12882 C -37.254006,339.36199 -36.373073,338.92061 -35.467072,338.92061 C -34.56021,338.92061 -33.680999,339.36199 -33.0525,340.12882 L 10.947498,393.86364 C 11.882025,395.00574 12.145708,396.6828 11.618372,398.14222 C 11.089284,399.60264 9.8789778,400.54236 8.5329264,400.54236 C 8.5329264,400.54236 -9.1350176,400.54236 -12,400.54236 C -12,404.21987 -12,456 -12,456 C -12.000875,458.17539 -13.504238,459.94499 -15.352558,459.94499 L -55.581586,459.94499 z"
         id="path13552"
         style="fill:none;fill-opacity:1;stroke:url(#linearGradient13726);stroke-width:9.70628452000000053;stroke-miterlimit:4;stroke-dasharray:none;stroke-opacity:1" />
      <path
         style="fill:none;fill-opacity:1;stroke:url(#radialGradient13728);stroke-width:9.70628452000000053;stroke-miterlimit:4;stroke-dasharray:none;stroke-opacity:1"
         id="path13574"
         d="M -55.581586,459.94499 C -57.429892,459.94499 -58.933269,458.17539 -58.933269,456.00102 C -58.933269,456.00102 -58.933269,404.21987 -58.933269,400.54338 C -61.798251,400.54338 -79.466209,400.54338 -79.466209,400.54338 C -80.813968,400.54338 -82.024275,399.60061 -82.550765,398.14222 C -82.551641,398.13814 -82.818767,396.5994 -82.818767,396.5994 C -82.818767,395.57324 -82.485935,394.60097 -81.880767,393.86364 L -37.881645,340.12882 C -37.254006,339.36199 -36.373073,338.92061 -35.467072,338.92061 C -34.56021,338.92061 -33.680999,339.36199 -33.0525,340.12882 L 10.947498,393.86364 C 11.882025,395.00574 12.145708,396.6828 11.618372,398.14222 C 11.089284,399.60264 9.8789778,400.54236 8.5329264,400.54236 C 8.5329264,400.54236 -9.1350176,400.54236 -12,400.54236 C -12,404.21987 -12,456 -12,456 C -12.000875,458.17539 -13.504238,459.94499 -15.352558,459.94499 L -55.581586,459.94499 z" />
      <path
         d="M -55.581586,459.94499 C -57.429892,459.94499 -58.933269,458.17539 -58.933269,456.00102 C -58.933269,456.00102 -58.933269,404.21987 -58.933269,400.54338 C -61.798251,400.54338 -79.466209,400.54338 -79.466209,400.54338 C -80.813968,400.54338 -82.024275,399.60061 -82.550765,398.14222 C -82.551641,398.13814 -82.818767,396.5994 -82.818767,396.5994 C -82.818767,395.57324 -82.485935,394.60097 -81.880767,393.86364 L -37.881645,340.12882 C -37.254006,339.36199 -36.373073,338.92061 -35.467072,338.92061 C -34.56021,338.92061 -33.680999,339.36199 -33.0525,340.12882 L 10.947498,393.86364 C 11.882025,395.00574 12.145708,396.6828 11.618372,398.14222 C 11.089284,399.60264 9.8789778,400.54236 8.5329264,400.54236 C 8.5329264,400.54236 -9.1350176,400.54236 -12,400.54236 C -12,404.21987 -12,456 -12,456 C -12.000875,458.17539 -13.504238,459.94499 -15.352558,459.94499 L -55.581586,459.94499 z"
         id="path13582"
         style="fill:none;fill-opacity:1;stroke:url(#radialGradient13730);stroke-width:9.70628452000000053;stroke-miterlimit:4;stroke-dasharray:none;stroke-opacity:1" />
      <path
         id="path13631"
         d="M -35.58753,334.58902 C -36.38125,334.58902 -37.1537,334.7408 -37.86878,334.99527 L -37.05628,338.90152 L -36.05628,343.71402 L -35.58753,343.15152 L -35.11878,343.74527 L -34.08753,338.93277 L -33.27503,334.99527 C -34.00269,334.73466 -34.78489,334.58903 -35.58753,334.58902 z M -78.46253,395.55777 L -83.27503,397.12027 L -86.65003,398.21402 C -86.622164,398.38116 -86.587758,398.65047 -86.58753,398.65152 L -86.52503,398.93277 L -86.43128,399.18277 C -86.035027,400.28042 -85.393908,401.29394 -84.55628,402.12027 L -81.83753,399.68277 L -77.93128,396.21402 C -78.048991,396.21402 -78.814112,396.21402 -78.86878,396.21402 C -78.879541,396.15113 -78.889992,396.14769 -78.90003,396.08902 L -78.46253,395.55777 z M 7.2874707,395.55777 L 7.7249707,396.08902 C 7.7093107,396.06989 7.7190107,396.17282 7.7249707,396.21402 C 7.6708607,396.21402 6.8778907,396.21402 6.7562207,396.21402 L 10.66247,399.68277 L 13.38122,402.12027 C 14.21941,401.29387 14.85879,400.27981 15.25622,399.18277 C 15.37064,398.86611 15.45966,398.53653 15.53747,398.21402 L 12.13122,397.12027 L 7.2874707,395.55777 z M -16.11878,455.24527 C -16.11878,455.25075 -16.11878,455.61948 -16.11878,455.62027 L -16.49378,455.62027 L -13.21253,460.58902 L -11.86878,462.62027 C -10.72944,461.92839 -9.8249293,460.91841 -9.1812793,459.74527 L -11.15003,458.46402 L -16.11878,455.24527 z M -55.05628,455.33902 L -59.90003,458.46402 L -61.96253,459.80777 C -61.304072,460.97924 -60.367314,461.96884 -59.21253,462.65152 L -57.83753,460.58902 L -54.55628,455.62027 L -55.05628,455.62027 C -55.05628,455.61968 -55.05628,455.34225 -55.05628,455.33902 z"
         style="opacity:0.70200572000000006;fill:url(#linearGradient13732);fill-opacity:1;stroke:none;stroke-width:7.99999952000000025;stroke-miterlimit:4;stroke-dasharray:none;stroke-opacity:1;filter:url(#filter13702)" />
      <path
         style="fill:url(#radialGradient13734);fill-opacity:1;stroke:none;stroke-width:7.99999952000000025;stroke-miterlimit:4;stroke-dasharray:none;stroke-opacity:1"
         id="path13586"
         d="M -55.581586,459.94499 C -57.429892,459.94499 -58.933269,458.17539 -58.933269,456.00102 C -58.933269,456.00102 -58.933269,404.21987 -58.933269,400.54338 C -61.798251,400.54338 -79.466209,400.54338 -79.466209,400.54338 C -80.813968,400.54338 -82.024275,399.60061 -82.550765,398.14222 C -82.551641,398.13814 -82.818767,396.5994 -82.818767,396.5994 C -82.818767,395.57324 -82.485935,394.60097 -81.880767,393.86364 L -37.881645,340.12882 C -37.254006,339.36199 -36.373073,338.92061 -35.467072,338.92061 C -34.56021,338.92061 -33.680999,339.36199 -33.0525,340.12882 L 10.947498,393.86364 C 11.882025,395.00574 12.145708,396.6828 11.618372,398.14222 C 11.089284,399.60264 9.8789778,400.54236 8.5329264,400.54236 C 8.5329264,400.54236 -9.1350176,400.54236 -12,400.54236 C -12,404.21987 -12,456 -12,456 C -12.000875,458.17539 -13.504238,459.94499 -15.352558,459.94499 L -55.581586,459.94499 z" />
      <path
         id="path13596"
         d="M -35.46875,338.90625 C -36.374751,338.90625 -37.247361,339.35818 -37.875,340.125 L -81.875,393.875 C -82.480168,394.61233 -82.812503,395.56759 -82.8125,396.59375 C -82.8125,396.59375 -82.563375,398.15218 -82.5625,398.15625 C -82.03601,399.61464 -80.816509,400.53126 -79.46875,400.53125 C -79.46875,400.53125 -61.802481,400.53126 -58.9375,400.53125 C -58.9375,400.94964 -58.9375,405.32656 -58.9375,406.84375 C -30.406175,402.13256 -7.7090267,395.91888 8.3125,390.65625 L -33.0625,340.125 C -33.690999,339.35817 -34.561888,338.90624 -35.46875,338.90625 z"
         style="fill:url(#radialGradient13736);fill-opacity:1;stroke:none;stroke-width:7.99999952000000025;stroke-miterlimit:4;stroke-dasharray:none;stroke-opacity:1" />
      <path
         d="M -55.581586,459.94499 C -57.429892,459.94499 -58.933269,458.17539 -58.933269,456.00102 C -58.933269,456.00102 -58.933269,404.21987 -58.933269,400.54338 C -61.798251,400.54338 -79.466209,400.54338 -79.466209,400.54338 C -80.813968,400.54338 -82.024275,399.60061 -82.550765,398.14222 C -82.551641,398.13814 -82.818767,396.5994 -82.818767,396.5994 C -82.818767,395.57324 -82.485935,394.60097 -81.880767,393.86364 L -37.881645,340.12882 C -37.254006,339.36199 -36.373073,338.92061 -35.467072,338.92061 C -34.56021,338.92061 -33.680999,339.36199 -33.0525,340.12882 L 10.947498,393.86364 C 11.882025,395.00574 12.145708,396.6828 11.618372,398.14222 C 11.089284,399.60264 9.8789778,400.54236 8.5329264,400.54236 C 8.5329264,400.54236 -9.1350176,400.54236 -12,400.54236 C -12,404.21987 -12,456 -12,456 C -12.000875,458.17539 -13.504238,459.94499 -15.352558,459.94499 L -55.581586,459.94499 z"
         id="path13607"
         style="fill:none;fill-opacity:1;stroke:url(#linearGradient13738);stroke-width:1.21328568000000003;stroke-miterlimit:4;stroke-dasharray:none;stroke-opacity:1" />
      <path
         style="fill:none;fill-opacity:1;stroke:url(#linearGradient13740);stroke-width:1.21328568000000003;stroke-miterlimit:4;stroke-dasharray:none;stroke-opacity:1"
         id="path13617"
         d="M -55.581586,459.94499 C -57.429892,459.94499 -58.933269,458.17539 -58.933269,456.00102 C -58.933269,456.00102 -58.933269,404.21987 -58.933269,400.54338 C -61.798251,400.54338 -79.466209,400.54338 -79.466209,400.54338 C -80.813968,400.54338 -82.024275,399.60061 -82.550765,398.14222 C -82.551641,398.13814 -82.818767,396.5994 -82.818767,396.5994 C -82.818767,395.57324 -82.485935,394.60097 -81.880767,393.86364 L -37.881645,340.12882 C -37.254006,339.36199 -36.373073,338.92061 -35.467072,338.92061 C -34.56021,338.92061 -33.680999,339.36199 -33.0525,340.12882 L 10.947498,393.86364 C 11.882025,395.00574 12.145708,396.6828 11.618372,398.14222 C 11.089284,399.60264 9.8789778,400.54236 8.5329264,400.54236 C 8.5329264,400.54236 -9.1350176,400.54236 -12,400.54236 C -12,404.21987 -12,456 -12,456 C -12.000875,458.17539 -13.504238,459.94499 -15.352558,459.94499 L -55.581586,459.94499 z" />
      <path
         style="fill:none;fill-opacity:1;stroke:url(#linearGradient13742);stroke-width:1.21328568000000003;stroke-miterlimit:4;stroke-dasharray:none;stroke-opacity:1"
         d="M -35.46875,338.90625 C -36.374751,338.90625 -37.247361,339.35818 -37.875,340.125 L -81.875,393.875 C -82.480168,394.61233 -82.812503,395.56759 -82.8125,396.59375 C -82.8125,396.59375 -82.563375,398.15218 -82.5625,398.15625 C -82.03601,399.61464 -80.816509,400.53126 -79.46875,400.53125 C -79.46875,400.53125 -61.802481,400.53126 -58.9375,400.53125 C -58.9375,400.94964 -58.9375,405.32656 -58.9375,406.84375 C -30.406175,402.13256 -7.7090267,395.91888 8.3125,390.65625 L -33.0625,340.125 C -33.690999,339.35817 -34.561888,338.90624 -35.46875,338.90625 z"
         id="path13621" />
    </g>
    <path
       id="path13602"
       d="M -180,92 L -180,156 L -44,156 L -44,60 C -44,60 -93.818182,84.51948 -180,92 z"
       style="fill:#000000;fill-rule:evenodd;stroke:#000000;stroke-width:1px;stroke-linecap:butt;stroke-linejoin:miter;stroke-opacity:1" />
    <g
       style="overflow:visible"
       id="g12519"
       transform="matrix(1.1491001,0,0,-1.1491001,-306.15597,163.40047)">
      <g
         id="g5097"
         transform="matrix(0.9184021,0,0,0.9114436,18.971235,-0.407444)">
        <path
           style="fill:url(#linearGradient15701);fill-opacity:1"
           id="path49"
           d="M 26.254957,0.445939 C 24.503566,0.445939 23.079018,2.1355516 23.079018,4.2116406 C 23.079018,4.2116406 23.079018,53.652277 23.079018,57.162592 C 20.364259,57.162592 3.6227097,57.162592 3.6227097,57.162592 C 2.3456199,57.162592 1.1987749,58.062743 0.69989072,59.455217 C 0.69906131,59.459114 0.44594124,60.9283 0.44594124,60.9283 C 0.44594124,61.908081 0.76132156,62.836398 1.3347576,63.540401 L 43.026813,114.8464 C 43.621542,115.57857 44.456284,116 45.314779,116 C 46.17409,116 47.0072,115.57857 47.602744,114.8464 L 89.295629,63.540401 C 90.181155,62.449924 90.431012,60.848666 89.931326,59.455217 C 89.429981,58.060807 88.283136,57.163567 87.007664,57.163567 C 87.007664,57.163567 70.266128,57.163567 67.551369,57.163567 C 67.551369,53.652277 67.551369,4.2126112 67.551369,4.2126112 C 67.55054,2.1355516 66.126005,0.445939 64.374601,0.445939 L 26.254957,0.445939 z" />
      </g>
    </g>
    <g
       transform="matrix(0.7598136,0,0,0.7598136,24.920534,62.454115)"
       id="g25354">
      <path
         id="path7562"
         d="M 83.216566,-25.775936 C 76.687496,-25.775837 71.039727,-25.367804 66.154066,-24.432186 C 55.84509,-22.762294 47.7463,-16.792218 44.435316,-7.650936 C 42.650776,-2.833375 41.935316,2.771167 41.935316,9.349064 C 41.935316,19.022397 43.860336,27.194225 48.466566,33.411564 L 48.466566,33.442814 C 53.656273,40.396371 62.07432,43.911608 71.529066,43.911564 L 98.622816,43.911564 C 99.464873,43.91157 99.87974,44.013454 100.06032,44.067814 C 100.0861,44.208677 100.12281,44.489533 100.12282,45.067814 C 100.12279,47.060154 99.691938,47.632463 99.747816,47.567814 C 99.707083,47.597078 99.498403,47.661568 98.622816,47.661564 L 48.622816,47.661564 C 47.037764,47.661597 44.761456,48.158187 43.060316,49.880314 C 41.359176,51.60244 40.904066,53.900677 40.904066,55.505314 L 40.904066,74.317814 C 40.904076,75.922444 41.359156,78.220674 43.060316,79.942814 C 44.761476,81.664964 47.037746,82.161564 48.622816,82.161564 L 108.02907,82.161564 C 113.1328,82.161564 117.99838,80.830904 121.81032,77.849064 L 121.87282,77.817814 L 121.93532,77.755314 C 125.13048,75.108764 127.69371,71.876614 129.49782,68.224064 C 132.52316,62.376974 134.02897,56.104152 134.02907,49.536564 C 134.02898,42.737686 133.52729,36.982347 132.27907,32.067814 C 131.04429,27.207066 129.0774,22.985132 126.12282,19.661564 C 123.23864,16.25537 119.47195,13.90305 115.12282,12.536564 C 111.02462,11.203131 106.48694,10.66163 101.31032,10.661564 L 77.341566,10.661564 C 76.112554,10.661577 75.587073,10.481084 75.404066,10.411564 C 75.384942,10.302272 75.341563,10.089919 75.341566,9.536564 C 75.341564,9.136448 75.34262,9.081917 75.341566,9.005314 C 75.584244,8.918824 76.155358,8.755331 77.341566,8.755314 L 122.43532,8.755314 C 124.02047,8.755413 126.26541,8.227458 127.96657,6.505314 C 129.66772,4.783171 130.15396,2.5161 130.15407,0.911564 L 130.15407,-17.775936 C 130.15397,-19.348902 129.7493,-21.495985 128.12282,-23.307186 C 126.49634,-25.118388 124.11973,-25.775799 122.43532,-25.775936 L 83.216566,-25.775936 z M 83.216566,-22.775936 L 122.43532,-22.775936 C 123.57309,-22.775844 124.97428,-22.346118 125.93532,-21.275936 C 126.89635,-20.205753 127.18525,-18.891559 127.18532,-17.775936 L 127.18532,0.911564 C 127.18524,2.01309 126.83994,3.369624 125.84157,4.380314 C 124.84319,5.391005 123.52347,5.724129 122.43532,5.724064 L 77.341566,5.724064 C 75.100855,5.724096 73.860607,6.195676 73.279066,6.692814 C 72.697526,7.18995 72.341559,7.858141 72.341566,9.536564 C 72.341557,11.364556 72.749132,12.097208 73.341566,12.630314 C 73.934,13.163419 75.122951,13.661587 77.341566,13.661564 L 101.31032,13.661564 C 106.26334,13.661627 110.54337,14.237498 114.24782,15.442814 C 118.13678,16.664716 121.39781,18.732942 123.90407,21.692814 C 126.44545,24.55158 128.22332,28.292788 129.37282,32.817814 C 130.52895,37.369775 131.06023,42.905357 131.06032,49.536564 C 131.06023,55.633218 129.6548,61.443154 126.84157,66.880314 C 125.23005,70.142934 122.92721,73.042274 120.02907,75.442814 L 119.99782,75.442814 L 119.96657,75.474064 C 116.75996,77.982394 112.65005,79.130314 108.02907,79.130314 L 48.622816,79.130314 C 47.534688,79.130314 46.183694,78.828514 45.185316,77.817814 C 44.186936,76.807114 43.872816,75.419364 43.872816,74.317814 L 43.872816,55.505314 C 43.872816,54.403762 44.186956,53.015996 45.185316,52.005314 C 46.18368,50.994631 47.534697,50.692832 48.622816,50.692814 L 98.622816,50.692814 C 100.53782,50.692822 101.40501,50.222413 101.99782,49.536564 C 102.59062,48.850715 103.09154,47.500338 103.09157,45.067814 C 103.09154,43.202142 102.70796,42.384215 102.18532,41.880314 C 101.66267,41.376415 100.63248,40.911583 98.622816,40.911564 L 71.529066,40.911564 C 62.722512,40.911605 55.477691,37.800268 50.872816,31.630314 C 46.796148,26.127755 44.935306,18.614502 44.935316,9.349064 C 44.935316,3.007908 45.646131,-2.26449 47.247816,-6.588436 C 50.20391,-14.749905 57.128192,-19.879017 66.716566,-21.432186 C 71.346766,-22.318881 76.818739,-22.775838 83.216566,-22.775936 z"
         style="font-size:182.7288208px;font-style:normal;font-variant:normal;font-weight:bold;font-stretch:normal;opacity:0.56652359;fill:#000000;fill-opacity:1;stroke:none;stroke-width:12;stroke-linecap:butt;stroke-linejoin:miter;stroke-miterlimit:4;stroke-dasharray:none;stroke-opacity:1;filter:url(#filter7576);font-family:Sidux;-inkscape-font-specification:Sidux Bold" />
      <path
         style="font-size:182.7288208px;font-style:normal;font-variant:normal;font-weight:bold;font-stretch:normal;fill:none;fill-opacity:1;stroke:#333333;stroke-width:12;stroke-linecap:butt;stroke-linejoin:miter;stroke-miterlimit:4;stroke-opacity:1;font-family:Sidux"
         d="M 46.85416,53.482793 L 46.85416,72.334874 C 46.854158,73.531824 47.445342,74.130304 48.627713,74.130304 L 108.04175,74.130304 C 112.17997,74.130304 115.54972,73.112894 118.151,71.078064 C 120.75214,68.923549 122.76216,66.409941 124.18108,63.537235 C 126.78221,58.51003 128.08282,53.183575 128.0829,47.557854 C 128.08282,41.094317 127.55075,35.767862 126.4867,31.578472 C 125.42249,27.389168 123.82629,24.097539 121.69811,21.703574 C 119.56977,19.190019 116.79121,17.394584 113.36241,16.317265 C 110.05171,15.240063 106.03166,14.701432 101.30224,14.701373 L 77.359275,14.701373 C 72.038589,14.701432 69.378262,12.30752 69.378286,7.519629 C 69.378262,2.971262 72.038589,0.697044 77.359275,0.696971 L 122.40753,0.696971 C 123.58982,0.697044 124.181,0.098567 124.18108,-1.098465 L 124.18108,-19.771001 C 124.181,-21.087558 123.58982,-21.745884 122.40753,-21.74598 L 83.212001,-21.74598 C 76.945415,-21.745884 71.62476,-21.32695 67.250022,-20.489175 C 58.382243,-19.052733 52.64776,-14.74369 50.046556,-7.562035 C 48.62771,-3.731693 47.918289,1.235675 47.918292,7.340085 C 47.918289,16.197628 49.69184,23.020278 53.238952,27.808057 C 55.012495,30.321711 57.377231,32.296689 60.333164,33.732995 C 63.407305,35.169384 67.131764,35.887558 71.50655,35.887519 L 98.641915,35.887519 C 103.60781,35.887558 106.09078,38.28147 106.09084,43.069263 C 106.09078,48.814684 103.60781,51.687379 98.641915,51.687357 L 48.627713,51.687357 C 47.445342,51.687379 46.854158,52.285858 46.85416,53.482793"
         id="text5058" />
      <path
         style="font-size:182.7288208px;font-style:normal;font-variant:normal;font-weight:bold;font-stretch:normal;fill:none;fill-opacity:1;stroke:url(#radialGradient25365);stroke-width:6;stroke-linecap:butt;stroke-linejoin:miter;stroke-miterlimit:4;stroke-opacity:1;font-family:Sidux"
         d="M 46.85416,53.482793 L 46.85416,72.334874 C 46.854158,73.531824 47.445342,74.130304 48.627713,74.130304 L 108.04175,74.130304 C 112.17997,74.130304 115.54972,73.112894 118.151,71.078064 C 120.75214,68.923549 122.76216,66.409941 124.18108,63.537235 C 126.78221,58.51003 128.08282,53.183575 128.0829,47.557854 C 128.08282,41.094317 127.55075,35.767862 126.4867,31.578472 C 125.42249,27.389168 123.82629,24.097539 121.69811,21.703574 C 119.56977,19.190019 116.79121,17.394584 113.36241,16.317265 C 110.05171,15.240063 106.03166,14.701432 101.30224,14.701373 L 77.359275,14.701373 C 72.038589,14.701432 69.378262,12.30752 69.378286,7.519629 C 69.378262,2.971262 72.038589,0.697044 77.359275,0.696971 L 122.40753,0.696971 C 123.58982,0.697044 124.181,0.098567 124.18108,-1.098465 L 124.18108,-19.771001 C 124.181,-21.087558 123.58982,-21.745884 122.40753,-21.74598 L 83.212001,-21.74598 C 76.945415,-21.745884 71.62476,-21.32695 67.250022,-20.489175 C 58.382243,-19.052733 52.64776,-14.74369 50.046556,-7.562035 C 48.62771,-3.731693 47.918289,1.235675 47.918292,7.340085 C 47.918289,16.197628 49.69184,23.020278 53.238952,27.808057 C 55.012495,30.321711 57.377231,32.296689 60.333164,33.732995 C 63.407305,35.169384 67.131764,35.887558 71.50655,35.887519 L 98.641915,35.887519 C 103.60781,35.887558 106.09078,38.28147 106.09084,43.069263 C 106.09078,48.814684 103.60781,51.687379 98.641915,51.687357 L 48.627713,51.687357 C 47.445342,51.687379 46.854158,52.285858 46.85416,53.482793"
         id="text5054" />
      <path
         style="font-size:182.7288208px;font-style:normal;font-variant:normal;font-weight:bold;font-stretch:normal;fill:#cccccc;fill-opacity:1;stroke:none;stroke-width:6;stroke-linecap:butt;stroke-linejoin:miter;stroke-miterlimit:4;stroke-opacity:1;font-family:Sidux"
         d="M 46.569682,53.012565 L 46.569682,71.864644 C 46.569681,73.061604 47.160865,73.660084 48.343235,73.660084 L 107.75727,73.660084 C 111.89549,73.660084 115.26524,72.642674 117.86652,70.607834 C 120.46766,68.453321 122.47768,65.939713 123.8966,63.067008 C 126.49773,58.039802 127.79834,52.713347 127.79842,47.087625 C 127.79834,40.624089 127.26627,35.297634 126.20222,31.108244 C 125.13801,26.91894 123.54181,23.62731 121.41363,21.233346 C 119.28529,18.71979 116.50673,16.924356 113.07793,15.847038 C 109.76723,14.769834 105.74718,14.231205 101.01777,14.231144 L 77.074798,14.231144 C 71.754112,14.231205 69.093785,11.837291 69.093809,7.0494 C 69.093785,2.501034 71.754112,0.226817 77.074798,0.226744 L 122.12305,0.226744 C 123.30534,0.226817 123.89653,-0.371661 123.8966,-1.568693 L 123.8966,-20.241229 C 123.89653,-21.557786 123.30534,-22.216112 122.12305,-22.216208 L 82.927524,-22.216208 C 76.660937,-22.216112 71.340283,-21.797178 66.965545,-20.959403 C 58.097765,-19.522961 52.363282,-15.213919 49.762078,-8.032263 C 48.343232,-4.201922 47.633812,0.765447 47.633814,6.869857 C 47.633812,15.7274 49.407363,22.55005 52.954474,27.337829 C 54.728017,29.851483 57.092753,31.82646 60.048687,33.262768 C 63.122828,34.699155 66.847286,35.417329 71.222072,35.417291 L 98.357438,35.417291 C 103.32333,35.417329 105.8063,37.811242 105.80636,42.599036 C 105.8063,48.344456 103.32333,51.217151 98.357438,51.217129 L 48.343235,51.217129 C 47.160865,51.217151 46.569681,51.815629 46.569682,53.012565"
         id="text7214" />
      <path
         style="font-size:182.7288208px;font-style:normal;font-variant:normal;font-weight:bold;font-stretch:normal;fill:#666666;fill-opacity:1;stroke:none;stroke-width:12;stroke-linecap:butt;stroke-linejoin:miter;stroke-miterlimit:4;stroke-dasharray:none;stroke-opacity:1;font-family:Sidux;-inkscape-font-specification:Sidux Bold"
         d="M 83.388013,-27.239563 C 76.905575,-27.239463 71.361235,-26.783118 66.669801,-25.897621 C 56.954621,-24.346542 49.938765,-19.224336 46.943577,-11.073848 C 45.32071,-6.755721 44.600491,-1.490421 44.600495,4.842204 C 44.702994,-0.860192 45.444168,-5.679862 46.943577,-9.66949 C 49.938765,-17.819976 56.954621,-22.942185 66.669801,-24.493264 C 71.361235,-25.378766 76.905575,-25.835108 83.388013,-25.835206 L 123.12543,-25.835206 C 124.27826,-25.835114 125.69797,-25.405966 126.67172,-24.337224 C 127.64547,-23.268481 127.93818,-21.956056 127.93825,-20.841934 L 127.93825,-22.246292 C 127.93818,-23.360414 127.64547,-24.672842 126.67172,-25.741582 C 125.69797,-26.810311 124.27826,-27.239473 123.12543,-27.239563 L 83.388013,-27.239563 z M 72.400854,5.747234 C 72.383578,5.963942 72.36919,6.170587 72.369191,6.433809 C 72.369182,8.259341 72.782147,8.991007 73.382416,9.523395 C 73.982685,10.055783 75.18736,10.55328 77.435316,10.553258 L 101.72105,10.553258 C 106.73958,10.55332 111.07621,11.128416 114.82965,12.33211 C 118.77005,13.552368 122.0742,15.617811 124.6136,18.573699 C 127.1886,21.428618 128.98998,25.164791 130.15468,29.683727 C 131.2407,33.898112 131.791,38.983033 131.8645,44.97562 C 131.86442,38.353337 131.32611,32.825205 130.15468,28.27937 C 128.98998,23.760434 127.1886,20.02426 124.6136,17.169342 C 122.0742,14.213453 118.77005,12.14801 114.82965,10.927753 C 111.07621,9.724059 106.73958,9.14896 101.72105,9.1489 L 77.435316,9.1489 C 75.18736,9.148923 73.982685,8.651422 73.382416,8.119038 C 72.875379,7.669338 72.504608,7.020441 72.400854,5.747234 z M 102.07258,41.168251 C 101.98426,43.160117 101.53606,44.359806 100.99603,44.97562 C 100.39538,45.660546 99.516719,46.130322 97.576392,46.130314 L 48.336762,46.130314 C 47.234252,46.130332 45.865368,46.431725 44.853801,47.441048 C 43.842234,48.45037 43.523942,49.836268 43.523943,50.936337 L 43.523943,52.340695 C 43.523942,51.240625 43.842234,49.854727 44.853801,48.845405 C 45.865368,47.836082 47.234252,47.534689 48.336762,47.534671 L 97.576392,47.534671 C 99.516719,47.534679 100.39538,47.064904 100.99603,46.379978 C 101.59667,45.695052 102.10422,44.346492 102.10424,41.917242 C 102.10424,41.630743 102.09006,41.407932 102.07258,41.168251 z"
         id="path7257"
         sodipodi:nodetypes="ccccccccsccscccssccccscsccccsccsccsccsccssc" />
      <path
         sodipodi:nodetypes="cscccccccscccsccccccccccccccccccsccsccccccsc"
         style="font-size:182.7288208px;font-style:normal;font-variant:normal;font-weight:bold;font-stretch:normal;fill:#000000;fill-opacity:1;stroke:none;stroke-width:12;stroke-linecap:butt;stroke-linejoin:miter;stroke-miterlimit:4;stroke-dasharray:none;stroke-opacity:1;font-family:Sidux;-inkscape-font-specification:Sidux Bold"
         d="M 129.68561,-3.275936 C 129.6855,-1.6714 129.20471,0.595668 127.52261,2.317814 C 125.84052,4.039958 123.62072,4.56791 122.05331,4.567814 L 77.464671,4.567814 C 76.291748,4.567831 75.727035,4.731321 75.487073,4.817814 C 75.488112,4.894417 73.935316,5.630314 73.935316,6.630314 C 74.935316,6.130314 75.529968,6.114769 75.548873,6.224064 C 75.806515,6.135311 76.344609,5.97408 77.464671,5.974064 L 122.05331,5.974064 C 123.62072,5.974163 125.84052,5.446208 127.52261,3.724064 C 129.20471,2.001921 129.6855,-0.26515 129.68561,-1.869686 L 129.68561,-3.275936 z M 42.455015,5.630314 C 42.451623,5.946018 42.455015,6.247516 42.455015,6.567814 C 42.455015,16.241147 44.358472,24.412975 48.913107,30.630314 L 48.913107,30.661564 C 54.044685,37.615121 62.368433,41.130358 71.717278,41.130314 L 98.507545,41.130314 C 99.340173,41.13032 99.935316,41.130314 100.93532,41.630314 C 100.93532,40.630314 100.43532,40.130314 99.928943,39.880314 C 99.750386,39.825954 99.340173,39.72407 98.507545,39.724064 L 71.717278,39.724064 C 62.368433,39.724108 54.044685,36.208871 48.913107,29.255314 L 48.913107,29.224064 C 44.433997,23.109816 42.517289,15.094158 42.455015,5.630314 z M 133.5172,45.817814 C 133.44729,52.213735 131.95631,58.329934 129.03671,64.036564 C 127.25281,67.689114 124.71829,70.921264 121.55892,73.567814 L 121.49712,73.630314 L 121.43532,73.661564 C 117.66608,76.643404 112.855,77.974064 107.80843,77.974064 L 49.067606,77.974064 C 47.500291,77.974064 45.249518,77.477464 43.567413,75.755314 C 41.885308,74.033174 41.435326,71.734944 41.435316,70.130314 L 41.435316,71.536564 C 41.435326,73.141194 41.885308,75.439424 43.567413,77.161564 C 45.249518,78.883714 47.500291,79.380314 49.067606,79.380314 L 107.80843,79.380314 C 112.855,79.380314 117.66608,78.049654 121.43532,75.067814 L 121.49712,75.036564 L 121.55892,74.974064 C 124.71829,72.327514 127.25281,69.095364 129.03671,65.442814 C 132.02817,59.595724 133.51711,53.322902 133.5172,46.755314 C 133.5172,46.436666 133.51941,46.131898 133.5172,45.817814 z"
         id="path7264" />
      <path
         style="fill:url(#radialGradient25367);fill-opacity:1;stroke:none;stroke-width:6.5250001;stroke-linecap:round;stroke-linejoin:round;stroke-miterlimit:4;stroke-dashoffset:4;stroke-opacity:1"
         d="M 82.935316,-22.213436 C 76.668731,-22.213341 71.341304,-21.801211 66.966566,-20.963436 C 58.098785,-19.526994 52.349019,-15.207592 49.747816,-8.025936 C 48.328969,-4.195595 47.622814,0.775905 47.622816,6.880314 C 47.622814,15.737856 49.419455,22.561285 52.966566,27.349064 C 54.74011,29.862718 57.104381,31.819007 60.060316,33.255314 C 63.134457,34.691702 66.84178,35.411603 71.216566,35.411564 L 98.372816,35.411564 C 103.33871,35.4116 105.81025,37.811271 105.81032,42.599064 C 105.81025,48.344487 103.33871,51.224086 98.372816,51.224064 L 48.341566,51.224064 C 47.159194,51.224086 46.560315,51.808379 46.560316,53.005314 L 46.560316,71.849064 C 46.560315,73.046024 47.159195,73.661564 48.341566,73.661564 L 107.74782,73.661564 C 111.88604,73.661564 115.27153,72.633894 117.87282,70.599064 C 120.47394,68.444549 122.48515,65.94052 123.90407,63.067814 C 126.5052,58.04061 127.81023,52.724784 127.81032,47.099064 C 127.81024,40.635525 127.28062,35.288452 126.21657,31.099064 C 125.15236,26.909757 123.53225,23.618028 121.40407,21.224064 C 119.27573,18.710508 116.52036,16.926383 113.09157,15.849064 C 109.78087,14.77186 105.75848,14.224123 101.02907,14.224064 L 77.060316,14.224064 C 71.739631,14.224124 69.091542,11.824455 69.091566,7.036564 C 69.091542,2.488197 71.73963,0.224138 77.060316,0.224064 L 122.12282,0.224064 C 123.3051,0.224139 123.90399,-0.360157 123.90407,-1.557186 L 123.90407,-20.244686 C 123.90399,-21.561245 123.3051,-22.213339 122.12282,-22.213436 L 82.935316,-22.213436 z"
         id="rect5006" />
      <path
         style="opacity:0.46551723;fill:url(#radialGradient25369);fill-opacity:1;fill-rule:evenodd;stroke:none;stroke-width:1px;stroke-linecap:butt;stroke-linejoin:miter;stroke-opacity:1"
         d="M 82.935316,-22.213436 C 76.668731,-22.213341 71.341304,-21.801211 66.966566,-20.963436 C 58.098785,-19.526994 52.349019,-15.207592 49.747816,-8.025936 C 48.328969,-4.195595 47.622814,0.775905 47.622816,6.880314 C 47.622815,10.39045 47.905136,13.571664 48.466566,16.442814 C 53.568947,16.57555 58.603786,16.960645 63.560316,17.536564 C 64.632996,17.940094 66.878265,15.23974 70.029066,11.099064 C 69.409335,10.021034 69.091558,8.673089 69.091566,7.036564 C 69.091542,2.488197 71.73963,0.224138 77.060316,0.224064 L 78.310316,0.224064 C 84.712562,-7.965624 92.672842,-17.049587 101.37282,-22.213436 L 82.935316,-22.213436 z M 123.90407,-8.119686 C 121.45969,-7.5498 119.03321,-6.923322 116.62282,-6.150936 C 113.16331,-5.04237 109.89883,-2.776546 106.77907,0.224064 L 122.12282,0.224064 C 123.3051,0.224139 123.90399,-0.360157 123.90407,-1.557186 L 123.90407,-8.119686 z M 95.747816,14.224064 C 94.048581,16.822727 92.383017,19.514886 90.716566,22.286564 C 102.51199,24.872325 114.16142,27.871447 125.99782,30.317814 C 124.93527,26.502314 123.39673,23.465582 121.40407,21.224064 C 119.27573,18.710508 116.52036,16.926383 113.09157,15.849064 C 109.78087,14.77186 105.75848,14.224123 101.02907,14.224064 L 95.747816,14.224064 z"
         id="path5008" />
      <path
         style="opacity:0.16810345;fill:url(#radialGradient25371);fill-opacity:1;fill-rule:evenodd;stroke:none;stroke-width:1px;stroke-linecap:butt;stroke-linejoin:miter;stroke-opacity:1"
         d="M 82.935316,-22.213436 C 76.668726,-22.213341 71.341306,-21.801211 66.966566,-20.963436 C 58.098785,-19.526994 52.349019,-15.207592 49.747816,-8.025936 C 48.328969,-4.195595 47.622814,0.775905 47.622816,6.880314 C 47.622816,7.729426 47.652335,8.537339 47.685316,9.349064 C 61.797966,0.206991 82.257616,-14.907446 99.029066,-22.213436 L 82.935316,-22.213436 z M 123.90407,-8.119686 C 121.45969,-7.5498 119.03321,-6.923322 116.62282,-6.150936 C 114.28468,-5.401702 113.07486,-2.992457 112.77907,0.224064 L 122.12282,0.224064 C 123.3051,0.224139 123.904,-0.360157 123.90407,-1.557186 L 123.90407,-8.119686 z M 116.65407,17.349064 C 118.93794,22.195098 122.05772,26.583924 125.62282,29.099064 C 124.5824,25.852895 123.1793,23.220994 121.40407,21.224064 C 120.07386,19.653091 118.48548,18.355692 116.65407,17.349064 z"
         id="path5024" />
    </g>
  </g>
</svg>
